<?xml version="1.0" encoding="UTF-8"?>
<svg xmlns="http://www.w3.org/2000/svg" viewBox="0 0 960 540" width="960" height="540">
<defs><linearGradient id="sky" x1="0" y1="0" x2="0" y2="1"><stop offset="0%" stop-color="#ffd0e8"/><stop offset="100%" stop-color="#886888"/></linearGradient></defs>
    <rect width="960" height="540" fill="url(#sky)"/>
    <ellipse cx="60" cy="297" rx="55" ry="70" fill="#c84888" opacity="0.7"/><rect x="55" y="297" width="10" height="80" fill="#483028"/><ellipse cx="170" cy="297" rx="55" ry="70" fill="#c84888" opacity="0.7"/><rect x="165" y="297" width="10" height="80" fill="#483028"/><ellipse cx="280" cy="297" rx="55" ry="70" fill="#c84888" opacity="0.7"/><rect x="275" y="297" width="10" height="80" fill="#483028"/><ellipse cx="390" cy="297" rx="55" ry="70" fill="#c84888" opacity="0.7"/><rect x="385" y="297" width="10" height="80" fill="#483028"/><ellipse cx="500" cy="297" rx="55" ry="70" fill="#c84888" opacity="0.7"/><rect x="495" y="297" width="10" height="80" fill="#483028"/><ellipse cx="610" cy="297" rx="55" ry="70" fill="#c84888" opacity="0.7"/><rect x="605" y="297" width="10" height="80" fill="#483028"/>
    <circle cx="0" cy="0" r="3" fill="#ffb8d8" opacity="0.8"/><circle cx="41" cy="29" r="3" fill="#ffb8d8" opacity="0.8"/><circle cx="82" cy="58" r="3" fill="#ffb8d8" opacity="0.8"/><circle cx="123" cy="87" r="3" fill="#ffb8d8" opacity="0.8"/><circle cx="164" cy="116" r="3" fill="#ffb8d8" opacity="0.8"/><circle cx="205" cy="145" r="3" fill="#ffb8d8" opacity="0.8"/><circle cx="246" cy="174" r="3" fill="#ffb8d8" opacity="0.8"/><circle cx="287" cy="203" r="3" fill="#ffb8d8" opacity="0.8"/><circle cx="328" cy="232" r="3" fill="#ffb8d8" opacity="0.8"/><circle cx="369" cy="261" r="3" fill="#ffb8d8" opacity="0.8"/><circle cx="410" cy="290" r="3" fill="#ffb8d8" opacity="0.8"/><circle cx="451" cy="319" r="3" fill="#ffb8d8" opacity="0.8"/><circle cx="492" cy="24" r="3" fill="#ffb8d8" opacity="0.8"/><circle cx="533" cy="53" r="3" fill="#ffb8d8" opacity="0.8"/><circle cx="574" cy="82" r="3" fill="#ffb8d8" opacity="0.8"/><circle cx="615" cy="111" r="3" fill="#ffb8d8" opacity="0.8"/><circle cx="656" cy="140" r="3" fill="#ffb8d8" opacity="0.8"/><circle cx="697" cy="169" r="3" fill="#ffb8d8" opacity="0.8"/><circle cx="738" cy="198" r="3" fill="#ffb8d8" opacity="0.8"/><circle cx="779" cy="227" r="3" fill="#ffb8d8" opacity="0.8"/><circle cx="820" cy="256" r="3" fill="#ffb8d8" opacity="0.8"/><circle cx="861" cy="285" r="3" fill="#ffb8d8" opacity="0.8"/><circle cx="902" cy="314" r="3" fill="#ffb8d8" opacity="0.8"/><circle cx="943" cy="19" r="3" fill="#ffb8d8" opacity="0.8"/><circle cx="24" cy="48" r="3" fill="#ffb8d8" opacity="0.8"/><circle cx="65" cy="77" r="3" fill="#ffb8d8" opacity="0.8"/><circle cx="106" cy="106" r="3" fill="#ffb8d8" opacity="0.8"/><circle cx="147" cy="135" r="3" fill="#ffb8d8" opacity="0.8"/><circle cx="188" cy="164" r="3" fill="#ffb8d8" opacity="0.8"/><circle cx="229" cy="193" r="3" fill="#ffb8d8" opacity="0.8"/><circle cx="270" cy="222" r="3" fill="#ffb8d8" opacity="0.8"/><circle cx="311" cy="251" r="3" fill="#ffb8d8" opacity="0.8"/><circle cx="352" cy="280" r="3" fill="#ffb8d8" opacity="0.8"/><circle cx="393" cy="309" r="3" fill="#ffb8d8" opacity="0.8"/><circle cx="434" cy="14" r="3" fill="#ffb8d8" opacity="0.8"/>
</svg>