<?xml version="1.0" encoding="UTF-8"?>
<svg xmlns="http://www.w3.org/2000/svg" viewBox="0 0 960 540" width="960" height="540">
<defs>
  <linearGradient id="skyTop" x1="0" y1="0" x2="0" y2="1">
    <stop offset="0%" stop-color="#1a1048"/>
    <stop offset="35%" stop-color="#3d2878"/>
    <stop offset="68%" stop-color="#284868"/>
    <stop offset="100%" stop-color="#0c1420"/>
  </linearGradient>
  <linearGradient id="skyDay" x1="0" y1="0" x2="0" y2="1">
    <stop offset="0%" stop-color="#7ec8ff"/>
    <stop offset="45%" stop-color="#a8d8f8"/>
    <stop offset="78%" stop-color="#e8c878"/>
    <stop offset="100%" stop-color="#88b868"/>
  </linearGradient>
  <linearGradient id="skySunset" x1="0" y1="0" x2="0" y2="1">
    <stop offset="0%" stop-color="#ff6b4a"/>
    <stop offset="28%" stop-color="#d84888"/>
    <stop offset="55%" stop-color="#683878"/>
    <stop offset="100%" stop-color="#120818"/>
  </linearGradient>
  <linearGradient id="haze" x1="0" y1="0.4" x2="0" y2="1">
    <stop offset="0%" stop-color="#fff" stop-opacity="0"/>
    <stop offset="100%" stop-color="#c8d8f0" stop-opacity="0.22"/>
  </linearGradient>
  <filter id="softGlow" x="-40%" y="-40%" width="180%" height="180%">
    <feGaussianBlur stdDeviation="4" result="b"/>
    <feMerge><feMergeNode in="b"/><feMergeNode in="SourceGraphic"/></feMerge>
  </filter>
  <filter id="neonGlow" x="-60%" y="-60%" width="220%" height="220%">
    <feGaussianBlur stdDeviation="6" result="b"/>
    <feMerge><feMergeNode in="b"/><feMergeNode in="b"/><feMergeNode in="SourceGraphic"/></feMerge>
  </filter>
  <filter id="paintSoft" x="-2%" y="-2%" width="104%" height="104%">
    <feGaussianBlur stdDeviation="0.6"/>
  </filter>
  <radialGradient id="sunDisc" cx="0.5" cy="0.5" r="0.5">
    <stop offset="0%" stop-color="#fff8e8"/>
    <stop offset="55%" stop-color="#ffd080"/>
    <stop offset="100%" stop-color="#ff904000"/>
  </radialGradient>
  <radialGradient id="moonGlow" cx="0.5" cy="0.5" r="0.5">
    <stop offset="0%" stop-color="#fffef8"/>
    <stop offset="40%" stop-color="#e8e0f0"/>
    <stop offset="100%" stop-color="#e8e0f000"/>
  </radialGradient>
  <linearGradient id="wallWarm" x1="0" y1="0" x2="1" y2="1">
    <stop offset="0%" stop-color="#fff0e4"/>
    <stop offset="45%" stop-color="#e8c8b0"/>
    <stop offset="100%" stop-color="#c8a088"/>
  </linearGradient>
  <linearGradient id="wallCool" x1="0" y1="0" x2="0" y2="1">
    <stop offset="0%" stop-color="#eef2f8"/>
    <stop offset="100%" stop-color="#b8c0d0"/>
  </linearGradient>
  <linearGradient id="floorWood" x1="0" y1="0.6" x2="0" y2="1">
    <stop offset="0%" stop-color="#a88870"/>
    <stop offset="100%" stop-color="#685040"/>
  </linearGradient>
  <radialGradient id="lampGlow" cx="0.5" cy="0.5" r="0.5">
    <stop offset="0%" stop-color="#fff8e0"/>
    <stop offset="70%" stop-color="#ffd898" stop-opacity="0.35"/>
    <stop offset="100%" stop-color="#ffd898" stop-opacity="0"/>
  </radialGradient>
</defs>
  <rect width="960" height="540" fill="url(#wallWarm)"/>
  <polygon points="0,280.8 0,540 960,540 960,280.8 787.1999999999999,313.2 172.79999999999998,313.2" fill="url(#floorWood)"/>
  <line x1="0" y1="540" x2="172.79999999999998" y2="313.2" stroke="#000" stroke-opacity="0.1" stroke-width="1"/><line x1="60" y1="540" x2="211.2" y2="313.2" stroke="#000" stroke-opacity="0.1" stroke-width="1"/><line x1="120" y1="540" x2="249.59999999999997" y2="313.2" stroke="#000" stroke-opacity="0.1" stroke-width="1"/><line x1="180" y1="540" x2="288" y2="313.2" stroke="#000" stroke-opacity="0.1" stroke-width="1"/><line x1="240" y1="540" x2="326.4" y2="313.2" stroke="#000" stroke-opacity="0.1" stroke-width="1"/><line x1="300" y1="540" x2="364.79999999999995" y2="313.2" stroke="#000" stroke-opacity="0.1" stroke-width="1"/><line x1="360" y1="540" x2="403.19999999999993" y2="313.2" stroke="#000" stroke-opacity="0.1" stroke-width="1"/><line x1="420" y1="540" x2="441.6" y2="313.2" stroke="#000" stroke-opacity="0.1" stroke-width="1"/><line x1="480" y1="540" x2="480" y2="313.2" stroke="#000" stroke-opacity="0.1" stroke-width="1"/><line x1="540" y1="540" x2="518.4" y2="313.2" stroke="#000" stroke-opacity="0.1" stroke-width="1"/><line x1="600" y1="540" x2="556.8" y2="313.2" stroke="#000" stroke-opacity="0.1" stroke-width="1"/><line x1="660" y1="540" x2="595.1999999999999" y2="313.2" stroke="#000" stroke-opacity="0.1" stroke-width="1"/><line x1="720" y1="540" x2="633.5999999999999" y2="313.2" stroke="#000" stroke-opacity="0.1" stroke-width="1"/><line x1="780" y1="540" x2="672" y2="313.2" stroke="#000" stroke-opacity="0.1" stroke-width="1"/><line x1="840" y1="540" x2="710.4" y2="313.2" stroke="#000" stroke-opacity="0.1" stroke-width="1"/><line x1="900" y1="540" x2="748.8" y2="313.2" stroke="#000" stroke-opacity="0.1" stroke-width="1"/>
  <rect x="528" y="43.2" width="364.8" height="226.79999999999998" fill="url(#skyTop)"/>
  <rect x="536" y="122.58" width="45.6" height="20" fill="#1a2438" opacity="0.85"/>
    <rect x="539" y="126.58" width="4" height="5" fill="#ffe8b0" opacity="0.4"/><rect x="596.8" y="122.58" width="45.6" height="38" fill="#1a2438" opacity="0.85"/>
    <rect x="599.8" y="126.58" width="4" height="5" fill="#ffe8b0" opacity="1.4"/><rect x="657.6" y="122.58" width="45.6" height="56" fill="#1a2438" opacity="0.85"/>
    <rect x="660.6" y="126.58" width="4" height="5" fill="#ffe8b0" opacity="2.4"/><rect x="718.4" y="122.58" width="45.6" height="74" fill="#1a2438" opacity="0.85"/>
    <rect x="721.4" y="126.58" width="4" height="5" fill="#ffe8b0" opacity="0.4"/><rect x="779.2" y="122.58" width="45.6" height="20" fill="#1a2438" opacity="0.85"/>
    <rect x="782.2" y="126.58" width="4" height="5" fill="#ffe8b0" opacity="1.4"/><rect x="840" y="122.58" width="45.6" height="38" fill="#1a2438" opacity="0.85"/>
    <rect x="843" y="126.58" width="4" height="5" fill="#ffe8b0" opacity="2.4"/><rect x="536" y="144.57999999999998" width="45.6" height="56" fill="#1a2438" opacity="0.85"/>
    <rect x="539" y="148.57999999999998" width="4" height="5" fill="#ffe8b0" opacity="0.4"/><rect x="596.8" y="144.57999999999998" width="45.6" height="74" fill="#1a2438" opacity="0.85"/>
    <rect x="599.8" y="148.57999999999998" width="4" height="5" fill="#ffe8b0" opacity="1.4"/><rect x="657.6" y="144.57999999999998" width="45.6" height="20" fill="#1a2438" opacity="0.85"/>
    <rect x="660.6" y="148.57999999999998" width="4" height="5" fill="#ffe8b0" opacity="2.4"/><rect x="718.4" y="144.57999999999998" width="45.6" height="38" fill="#1a2438" opacity="0.85"/>
    <rect x="721.4" y="148.57999999999998" width="4" height="5" fill="#ffe8b0" opacity="0.4"/><rect x="779.2" y="144.57999999999998" width="45.6" height="56" fill="#1a2438" opacity="0.85"/>
    <rect x="782.2" y="148.57999999999998" width="4" height="5" fill="#ffe8b0" opacity="1.4"/><rect x="840" y="144.57999999999998" width="45.6" height="74" fill="#1a2438" opacity="0.85"/>
    <rect x="843" y="148.57999999999998" width="4" height="5" fill="#ffe8b0" opacity="2.4"/><rect x="536" y="166.57999999999998" width="45.6" height="20" fill="#1a2438" opacity="0.85"/>
    <rect x="539" y="170.57999999999998" width="4" height="5" fill="#ffe8b0" opacity="0.4"/><rect x="596.8" y="166.57999999999998" width="45.6" height="38" fill="#1a2438" opacity="0.85"/>
    <rect x="599.8" y="170.57999999999998" width="4" height="5" fill="#ffe8b0" opacity="1.4"/><rect x="657.6" y="166.57999999999998" width="45.6" height="56" fill="#1a2438" opacity="0.85"/>
    <rect x="660.6" y="170.57999999999998" width="4" height="5" fill="#ffe8b0" opacity="2.4"/><rect x="718.4" y="166.57999999999998" width="45.6" height="74" fill="#1a2438" opacity="0.85"/>
    <rect x="721.4" y="170.57999999999998" width="4" height="5" fill="#ffe8b0" opacity="0.4"/><rect x="779.2" y="166.57999999999998" width="45.6" height="20" fill="#1a2438" opacity="0.85"/>
    <rect x="782.2" y="170.57999999999998" width="4" height="5" fill="#ffe8b0" opacity="1.4"/><rect x="840" y="166.57999999999998" width="45.6" height="38" fill="#1a2438" opacity="0.85"/>
    <rect x="843" y="170.57999999999998" width="4" height="5" fill="#ffe8b0" opacity="2.4"/><rect x="536" y="188.57999999999998" width="45.6" height="56" fill="#1a2438" opacity="0.85"/>
    <rect x="539" y="192.57999999999998" width="4" height="5" fill="#ffe8b0" opacity="0.4"/><rect x="596.8" y="188.57999999999998" width="45.6" height="74" fill="#1a2438" opacity="0.85"/>
    <rect x="599.8" y="192.57999999999998" width="4" height="5" fill="#ffe8b0" opacity="1.4"/><rect x="657.6" y="188.57999999999998" width="45.6" height="20" fill="#1a2438" opacity="0.85"/>
    <rect x="660.6" y="192.57999999999998" width="4" height="5" fill="#ffe8b0" opacity="2.4"/><rect x="718.4" y="188.57999999999998" width="45.6" height="38" fill="#1a2438" opacity="0.85"/>
    <rect x="721.4" y="192.57999999999998" width="4" height="5" fill="#ffe8b0" opacity="0.4"/><rect x="779.2" y="188.57999999999998" width="45.6" height="56" fill="#1a2438" opacity="0.85"/>
    <rect x="782.2" y="192.57999999999998" width="4" height="5" fill="#ffe8b0" opacity="1.4"/><rect x="840" y="188.57999999999998" width="45.6" height="74" fill="#1a2438" opacity="0.85"/>
    <rect x="843" y="192.57999999999998" width="4" height="5" fill="#ffe8b0" opacity="2.4"/>
  <circle cx="0" cy="34" r="8" fill="#ffb8e8" opacity="0.12" filter="url(#softGlow)"/><circle cx="208" cy="61" r="14" fill="#88d8ff" opacity="0.12" filter="url(#softGlow)"/><circle cx="52" cy="89" r="20" fill="#ffe8a8" opacity="0.12" filter="url(#softGlow)"/><circle cx="260" cy="116" r="26" fill="#ffb8e8" opacity="0.12" filter="url(#softGlow)"/><circle cx="104" cy="143" r="32" fill="#88d8ff" opacity="0.12" filter="url(#softGlow)"/><circle cx="312" cy="46" r="38" fill="#ffe8a8" opacity="0.12" filter="url(#softGlow)"/><circle cx="155" cy="73" r="44" fill="#ffb8e8" opacity="0.12" filter="url(#softGlow)"/><circle cx="364" cy="101" r="8" fill="#88d8ff" opacity="0.12" filter="url(#softGlow)"/><circle cx="207" cy="128" r="14" fill="#ffe8a8" opacity="0.12" filter="url(#softGlow)"/><circle cx="51" cy="155" r="20" fill="#ffb8e8" opacity="0.12" filter="url(#softGlow)"/><circle cx="259" cy="58" r="26" fill="#88d8ff" opacity="0.12" filter="url(#softGlow)"/><circle cx="103" cy="85" r="32" fill="#ffe8a8" opacity="0.12" filter="url(#softGlow)"/>
  <rect x="528" y="43.2" width="364.8" height="226.79999999999998" fill="none" stroke="#584838" stroke-width="6"/>
  <path d="M710.4 43.2 L710.4 270 M528 156.6 L892.8 156.6" stroke="#584838" stroke-width="2"/>
  <circle cx="115.19999999999999" cy="32.4" r="3" fill="#ffd898" opacity="0.85" filter="url(#softGlow)"/><circle cx="211.2" cy="32.4" r="3" fill="#ffd898" opacity="0.85" filter="url(#softGlow)"/><circle cx="307.2" cy="32.4" r="3" fill="#ffd898" opacity="0.85" filter="url(#softGlow)"/><circle cx="403.2" cy="32.4" r="3" fill="#ffd898" opacity="0.85" filter="url(#softGlow)"/><circle cx="499.2" cy="32.4" r="3" fill="#ffd898" opacity="0.85" filter="url(#softGlow)"/><circle cx="595.2" cy="32.4" r="3" fill="#ffd898" opacity="0.85" filter="url(#softGlow)"/><circle cx="691.2" cy="32.4" r="3" fill="#ffd898" opacity="0.85" filter="url(#softGlow)"/><circle cx="787.2" cy="32.4" r="3" fill="#ffd898" opacity="0.85" filter="url(#softGlow)"/><circle cx="115.19999999999999" cy="60.4" r="3" fill="#ffd898" opacity="0.85" filter="url(#softGlow)"/><circle cx="211.2" cy="60.4" r="3" fill="#ffd898" opacity="0.85" filter="url(#softGlow)"/><circle cx="307.2" cy="60.4" r="3" fill="#ffd898" opacity="0.85" filter="url(#softGlow)"/><circle cx="403.2" cy="60.4" r="3" fill="#ffd898" opacity="0.85" filter="url(#softGlow)"/><circle cx="499.2" cy="60.4" r="3" fill="#ffd898" opacity="0.85" filter="url(#softGlow)"/><circle cx="595.2" cy="60.4" r="3" fill="#ffd898" opacity="0.85" filter="url(#softGlow)"/><circle cx="691.2" cy="60.4" r="3" fill="#ffd898" opacity="0.85" filter="url(#softGlow)"/><circle cx="787.2" cy="60.4" r="3" fill="#ffd898" opacity="0.85" filter="url(#softGlow)"/>
  <rect x="57.599999999999994" y="118.8" width="115.19999999999999" height="172.8" fill="#786050" opacity="0.55" rx="4"/>
  <rect x="67.2" y="129.6" width="96" height="28" fill="#88a8d8" opacity="0.5" rx="2"/><rect x="67.2" y="167.6" width="96" height="28" fill="#e87888" opacity="0.5" rx="2"/><rect x="67.2" y="205.6" width="96" height="28" fill="#88a8d8" opacity="0.5" rx="2"/><rect x="67.2" y="243.6" width="96" height="28" fill="#e87888" opacity="0.5" rx="2"/><rect x="67.2" y="281.6" width="96" height="28" fill="#88a8d8" opacity="0.5" rx="2"/>
  <ellipse cx="268.8" cy="421.2" rx="130" ry="38" fill="#a87868" opacity="0.75"/>
  <rect x="172.79999999999998" y="334.8" width="200" height="55" rx="18" fill="#c89888"/>
  <rect x="192" y="313.2" width="180" height="22" rx="10" fill="#fff" opacity="0.12"/>
  <ellipse cx="691.1999999999999" cy="388.8" rx="55" ry="70" fill="#388848" opacity="0.75"/>
  <rect x="662.4" y="297" width="12" height="90" fill="#584838"/>
  <circle cx="844.8" cy="172.8" r="55" fill="url(#lampGlow)"/>
  <rect x="825.6" y="151.20000000000002" width="8" height="120" fill="#484848"/>
  <ellipse cx="480" cy="243" rx="200" ry="120" fill="#fff8e8" opacity="0.08"/>
</svg>