<?xml version="1.0" encoding="UTF-8"?>
<svg xmlns="http://www.w3.org/2000/svg" viewBox="0 0 1920 1080" width="1920" height="1080">
<defs>
  <linearGradient id="skyTop" x1="0" y1="0" x2="0" y2="1">
    <stop offset="0%" stop-color="#121828"/>
    <stop offset="32%" stop-color="#243050"/>
    <stop offset="58%" stop-color="#2a3848"/>
    <stop offset="100%" stop-color="#0a0e14"/>
  </linearGradient>
  <linearGradient id="skyDay" x1="0" y1="0" x2="0" y2="1">
    <stop offset="0%" stop-color="#6eb4e0"/>
    <stop offset="38%" stop-color="#a8cce8"/>
    <stop offset="70%" stop-color="#d8c098"/>
    <stop offset="100%" stop-color="#6a8868"/>
  </linearGradient>
  <linearGradient id="skySunset" x1="0" y1="0" x2="0" y2="1">
    <stop offset="0%" stop-color="#ff6b4a"/>
    <stop offset="28%" stop-color="#d84888"/>
    <stop offset="55%" stop-color="#683878"/>
    <stop offset="100%" stop-color="#120818"/>
  </linearGradient>
  <linearGradient id="haze" x1="0" y1="0.4" x2="0" y2="1">
    <stop offset="0%" stop-color="#fff" stop-opacity="0"/>
    <stop offset="100%" stop-color="#c8d8f0" stop-opacity="0.22"/>
  </linearGradient>
  <filter id="softGlow" x="-40%" y="-40%" width="180%" height="180%">
    <feGaussianBlur stdDeviation="4" result="b"/>
    <feMerge><feMergeNode in="b"/><feMergeNode in="SourceGraphic"/></feMerge>
  </filter>
  <filter id="neonGlow" x="-60%" y="-60%" width="220%" height="220%">
    <feGaussianBlur stdDeviation="6" result="b"/>
    <feMerge><feMergeNode in="b"/><feMergeNode in="b"/><feMergeNode in="SourceGraphic"/></feMerge>
  </filter>
  <filter id="paintSoft" x="-2%" y="-2%" width="104%" height="104%">
    <feGaussianBlur stdDeviation="0.6"/>
  </filter>
  <radialGradient id="sunDisc" cx="0.5" cy="0.5" r="0.5">
    <stop offset="0%" stop-color="#fff8e8"/>
    <stop offset="55%" stop-color="#ffd080"/>
    <stop offset="100%" stop-color="#ff904000"/>
  </radialGradient>
  <radialGradient id="moonGlow" cx="0.5" cy="0.5" r="0.5">
    <stop offset="0%" stop-color="#fffef8"/>
    <stop offset="40%" stop-color="#e8e0f0"/>
    <stop offset="100%" stop-color="#e8e0f000"/>
  </radialGradient>
  <linearGradient id="wallWarm" x1="0" y1="0" x2="1" y2="1">
    <stop offset="0%" stop-color="#fff0e4"/>
    <stop offset="45%" stop-color="#e8c8b0"/>
    <stop offset="100%" stop-color="#c8a088"/>
  </linearGradient>
  <linearGradient id="wallCool" x1="0" y1="0" x2="0" y2="1">
    <stop offset="0%" stop-color="#eef2f8"/>
    <stop offset="100%" stop-color="#b8c0d0"/>
  </linearGradient>
  <linearGradient id="floorWood" x1="0" y1="0.6" x2="0" y2="1">
    <stop offset="0%" stop-color="#a88870"/>
    <stop offset="100%" stop-color="#685040"/>
  </linearGradient>
  <radialGradient id="lampGlow" cx="0.5" cy="0.5" r="0.5">
    <stop offset="0%" stop-color="#fff8e0"/>
    <stop offset="70%" stop-color="#ffd898" stop-opacity="0.35"/>
    <stop offset="100%" stop-color="#ffd898" stop-opacity="0"/>
  </radialGradient>
  <radialGradient id="vignette" cx="0.5" cy="0.42" r="0.78">
    <stop offset="55%" stop-color="#000" stop-opacity="0"/>
    <stop offset="100%" stop-color="#030508" stop-opacity="0.38"/>
  </radialGradient>
  <linearGradient id="filmGrade" x1="0" y1="0" x2="0" y2="1">
    <stop offset="0%" stop-color="#283858" stop-opacity="0.14"/>
    <stop offset="42%" stop-color="#000" stop-opacity="0"/>
    <stop offset="100%" stop-color="#000" stop-opacity="0.32"/>
  </linearGradient>
  <radialGradient id="stageGlow" cx="0.5" cy="0.62" r="0.55">
    <stop offset="0%" stop-color="#fff" stop-opacity="0.06"/>
    <stop offset="100%" stop-color="#fff" stop-opacity="0"/>
  </radialGradient>
</defs>
  <rect width="1920" height="1080" fill="url(#skyDay)"/>
  <polygon points="1382.3999999999999,86.4 2599.827035850203,-357.99555846226497 2616.6243065718845,-308.9559928307028" fill="#fff8e8" opacity="0.04"/><polygon points="1382.3999999999999,86.4 2631.447081690194,-259.2839419487251 2644.2716479269657,-209.0588705016041" fill="#fff8e8" opacity="0.04"/><polygon points="1382.3999999999999,86.4 2655.0774887119824,-158.3611278895447 2663.8473170051107,-107.27181968578455" fill="#fff8e8" opacity="0.04"/><polygon points="1382.3999999999999,86.4 2670.567102951879,-55.872677884978515 2675.22609632825,-4.2459301494424295" fill="#fff8e8" opacity="0.04"/><polygon points="1382.3999999999999,86.4 2677.8168437386876,47.52583173756567 2678.3352005399984,99.35978400108004" fill="#fff8e8" opacity="0.04"/><polygon points="1382.3999999999999,86.4 2676.780337471876,151.17300337479918 2673.154741983544,202.88259976062238" fill="#fff8e8" opacity="0.04"/><polygon points="1382.3999999999999,86.4 2667.4642142543653,254.40584883512452 2659.7178579147903,305.6603243908269" fill="#fff8e8" opacity="0.04"/><polygon points="1382.3999999999999,86.4 2649.928065482496,356.5640302005452 2638.1104985369957,407.03553119386186" fill="#fff8e8" opacity="0.04"/><polygon points="1382.3999999999999,86.4 2624.2840626644556,456.994083735867 2608.4708772127897,506.3597647997494" fill="#fff8e8" opacity="0.04"/>
  <ellipse cx="0" cy="86.4" rx="144" ry="33.6" fill="#fff" opacity="0.06"/><ellipse cx="60" cy="78.4" rx="108" ry="26.4" fill="#fff" opacity="0.05"/><ellipse cx="979.2" cy="151.20000000000002" rx="192" ry="44.800000000000004" fill="#fff" opacity="0.09"/><ellipse cx="1039.2" cy="143.20000000000002" rx="144" ry="35.2" fill="#fff" opacity="0.05"/><ellipse cx="422.4" cy="216" rx="240" ry="56" fill="#fff" opacity="0.12"/><ellipse cx="482.4" cy="208" rx="180" ry="44" fill="#fff" opacity="0.05"/><ellipse cx="1401.6" cy="280.8" rx="144" ry="33.6" fill="#fff" opacity="0.06"/><ellipse cx="1461.6" cy="272.8" rx="108" ry="26.4" fill="#fff" opacity="0.05"/><ellipse cx="844.8" cy="86.4" rx="192" ry="44.800000000000004" fill="#fff" opacity="0.09"/><ellipse cx="904.8" cy="78.4" rx="144" ry="35.2" fill="#fff" opacity="0.05"/><ellipse cx="288" cy="151.20000000000002" rx="240" ry="56" fill="#fff" opacity="0.12"/><ellipse cx="348" cy="143.20000000000002" rx="180" ry="44" fill="#fff" opacity="0.05"/><ellipse cx="1267.2" cy="216" rx="144" ry="33.6" fill="#fff" opacity="0.06"/><ellipse cx="1327.2" cy="208" rx="108" ry="26.4" fill="#fff" opacity="0.05"/><ellipse cx="710.4" cy="280.8" rx="192" ry="44.800000000000004" fill="#fff" opacity="0.09"/><ellipse cx="770.4" cy="272.8" rx="144" ry="35.2" fill="#fff" opacity="0.05"/><ellipse cx="153.6" cy="86.4" rx="240" ry="56" fill="#fff" opacity="0.12"/><ellipse cx="213.6" cy="78.4" rx="180" ry="44" fill="#fff" opacity="0.05"/><ellipse cx="1132.8" cy="151.20000000000002" rx="144" ry="33.6" fill="#fff" opacity="0.06"/><ellipse cx="1192.8" cy="143.20000000000002" rx="108" ry="26.4" fill="#fff" opacity="0.05"/><ellipse cx="576" cy="216" rx="192" ry="44.800000000000004" fill="#fff" opacity="0.09"/><ellipse cx="636" cy="208" rx="144" ry="35.2" fill="#fff" opacity="0.05"/><ellipse cx="19.2" cy="280.8" rx="240" ry="56" fill="#fff" opacity="0.12"/><ellipse cx="79.2" cy="272.8" rx="180" ry="44" fill="#fff" opacity="0.05"/>
  <ellipse cx="960" cy="864" rx="1632" ry="270" fill="#68a848"/>
  <line x1="0" y1="810" x2="-3" y2="798" stroke="#88d858" stroke-width="1.5" opacity="0.7"/><line x1="24" y1="810" x2="21" y2="790" stroke="#88d858" stroke-width="1.5" opacity="0.7"/><line x1="48" y1="810" x2="45" y2="782" stroke="#88d858" stroke-width="1.5" opacity="0.7"/><line x1="72" y1="810" x2="69" y2="774" stroke="#88d858" stroke-width="1.5" opacity="0.7"/><line x1="96" y1="810" x2="93" y2="766" stroke="#88d858" stroke-width="1.5" opacity="0.7"/><line x1="120" y1="810" x2="117" y2="798" stroke="#88d858" stroke-width="1.5" opacity="0.7"/><line x1="144" y1="810" x2="141" y2="790" stroke="#88d858" stroke-width="1.5" opacity="0.7"/><line x1="168" y1="810" x2="165" y2="782" stroke="#88d858" stroke-width="1.5" opacity="0.7"/><line x1="192" y1="810" x2="189" y2="774" stroke="#88d858" stroke-width="1.5" opacity="0.7"/><line x1="216" y1="810" x2="213" y2="766" stroke="#88d858" stroke-width="1.5" opacity="0.7"/><line x1="240" y1="810" x2="237" y2="798" stroke="#88d858" stroke-width="1.5" opacity="0.7"/><line x1="264" y1="810" x2="261" y2="790" stroke="#88d858" stroke-width="1.5" opacity="0.7"/><line x1="288" y1="810" x2="285" y2="782" stroke="#88d858" stroke-width="1.5" opacity="0.7"/><line x1="312" y1="810" x2="309" y2="774" stroke="#88d858" stroke-width="1.5" opacity="0.7"/><line x1="336" y1="810" x2="333" y2="766" stroke="#88d858" stroke-width="1.5" opacity="0.7"/><line x1="360" y1="810" x2="357" y2="798" stroke="#88d858" stroke-width="1.5" opacity="0.7"/><line x1="384" y1="810" x2="381" y2="790" stroke="#88d858" stroke-width="1.5" opacity="0.7"/><line x1="408" y1="810" x2="405" y2="782" stroke="#88d858" stroke-width="1.5" opacity="0.7"/><line x1="432" y1="810" x2="429" y2="774" stroke="#88d858" stroke-width="1.5" opacity="0.7"/><line x1="456" y1="810" x2="453" y2="766" stroke="#88d858" stroke-width="1.5" opacity="0.7"/><line x1="480" y1="810" x2="477" y2="798" stroke="#88d858" stroke-width="1.5" opacity="0.7"/><line x1="504" y1="810" x2="501" y2="790" stroke="#88d858" stroke-width="1.5" opacity="0.7"/><line x1="528" y1="810" x2="525" y2="782" stroke="#88d858" stroke-width="1.5" opacity="0.7"/><line x1="552" y1="810" x2="549" y2="774" stroke="#88d858" stroke-width="1.5" opacity="0.7"/><line x1="576" y1="810" x2="573" y2="766" stroke="#88d858" stroke-width="1.5" opacity="0.7"/><line x1="600" y1="810" x2="597" y2="798" stroke="#88d858" stroke-width="1.5" opacity="0.7"/><line x1="624" y1="810" x2="621" y2="790" stroke="#88d858" stroke-width="1.5" opacity="0.7"/><line x1="648" y1="810" x2="645" y2="782" stroke="#88d858" stroke-width="1.5" opacity="0.7"/><line x1="672" y1="810" x2="669" y2="774" stroke="#88d858" stroke-width="1.5" opacity="0.7"/><line x1="696" y1="810" x2="693" y2="766" stroke="#88d858" stroke-width="1.5" opacity="0.7"/><line x1="720" y1="810" x2="717" y2="798" stroke="#88d858" stroke-width="1.5" opacity="0.7"/><line x1="744" y1="810" x2="741" y2="790" stroke="#88d858" stroke-width="1.5" opacity="0.7"/><line x1="768" y1="810" x2="765" y2="782" stroke="#88d858" stroke-width="1.5" opacity="0.7"/><line x1="792" y1="810" x2="789" y2="774" stroke="#88d858" stroke-width="1.5" opacity="0.7"/><line x1="816" y1="810" x2="813" y2="766" stroke="#88d858" stroke-width="1.5" opacity="0.7"/><line x1="840" y1="810" x2="837" y2="798" stroke="#88d858" stroke-width="1.5" opacity="0.7"/><line x1="864" y1="810" x2="861" y2="790" stroke="#88d858" stroke-width="1.5" opacity="0.7"/><line x1="888" y1="810" x2="885" y2="782" stroke="#88d858" stroke-width="1.5" opacity="0.7"/><line x1="912" y1="810" x2="909" y2="774" stroke="#88d858" stroke-width="1.5" opacity="0.7"/><line x1="936" y1="810" x2="933" y2="766" stroke="#88d858" stroke-width="1.5" opacity="0.7"/>
  <circle cx="80" cy="734.4000000000001" r="4" fill="#ffe878" opacity="0.8"/><circle cx="190" cy="734.4000000000001" r="4" fill="#ffe878" opacity="0.8"/><circle cx="300" cy="734.4000000000001" r="4" fill="#ffe878" opacity="0.8"/><circle cx="410" cy="734.4000000000001" r="4" fill="#ffe878" opacity="0.8"/><circle cx="520" cy="734.4000000000001" r="4" fill="#ffe878" opacity="0.8"/><circle cx="630" cy="734.4000000000001" r="4" fill="#ffe878" opacity="0.8"/><circle cx="740" cy="734.4000000000001" r="4" fill="#ffe878" opacity="0.8"/><circle cx="850" cy="734.4000000000001" r="4" fill="#ffe878" opacity="0.8"/>
  <rect x="0" y="734.4000000000001" width="1920" height="345.59999999999997" fill="url(#haze)" opacity="0.26"/>
  <ellipse cx="960" cy="734.4000000000001" rx="1056" ry="129.6" fill="#fff" opacity="0.091"/><circle cx="0.0" cy="15.6" r="0.60" fill="#fff" opacity="0.022"/><circle cx="263.0" cy="97.3" r="0.95" fill="#fff" opacity="0.032"/><circle cx="526.1" cy="179.0" r="1.30" fill="#fff" opacity="0.042"/><circle cx="789.1" cy="260.7" r="0.60" fill="#fff" opacity="0.052"/><circle cx="1052.2" cy="342.4" r="0.95" fill="#fff" opacity="0.022"/><circle cx="1315.2" cy="424.1" r="1.30" fill="#fff" opacity="0.032"/><circle cx="1578.2" cy="505.8" r="0.60" fill="#fff" opacity="0.042"/><circle cx="1841.3" cy="587.5" r="0.95" fill="#fff" opacity="0.052"/><circle cx="184.3" cy="669.2" r="1.30" fill="#fff" opacity="0.022"/><circle cx="447.4" cy="750.9" r="0.60" fill="#fff" opacity="0.032"/><circle cx="710.4" cy="832.6" r="0.95" fill="#fff" opacity="0.042"/><circle cx="973.4" cy="914.3" r="1.30" fill="#fff" opacity="0.052"/><circle cx="1236.5" cy="78.0" r="0.60" fill="#fff" opacity="0.022"/><circle cx="1499.5" cy="159.7" r="0.95" fill="#fff" opacity="0.032"/><circle cx="1762.6" cy="241.4" r="1.30" fill="#fff" opacity="0.042"/><circle cx="105.6" cy="323.1" r="0.60" fill="#fff" opacity="0.052"/><circle cx="368.6" cy="404.8" r="0.95" fill="#fff" opacity="0.022"/><circle cx="631.7" cy="486.5" r="1.30" fill="#fff" opacity="0.032"/><circle cx="894.7" cy="568.2" r="0.60" fill="#fff" opacity="0.042"/><circle cx="1157.8" cy="649.9" r="0.95" fill="#fff" opacity="0.052"/><circle cx="1420.8" cy="731.6" r="1.30" fill="#fff" opacity="0.022"/><circle cx="1683.8" cy="813.3" r="0.60" fill="#fff" opacity="0.032"/><circle cx="26.9" cy="895.0" r="0.95" fill="#fff" opacity="0.042"/><circle cx="289.9" cy="58.8" r="1.30" fill="#fff" opacity="0.052"/><circle cx="553.0" cy="140.5" r="0.60" fill="#fff" opacity="0.022"/><circle cx="816.0" cy="222.2" r="0.95" fill="#fff" opacity="0.032"/><circle cx="1079.0" cy="303.9" r="1.30" fill="#fff" opacity="0.042"/><circle cx="1342.1" cy="385.6" r="0.60" fill="#fff" opacity="0.052"/><circle cx="1605.1" cy="467.3" r="0.95" fill="#fff" opacity="0.022"/><circle cx="1868.2" cy="549.0" r="1.30" fill="#fff" opacity="0.032"/><circle cx="211.2" cy="630.7" r="0.60" fill="#fff" opacity="0.042"/><circle cx="474.2" cy="712.4" r="0.95" fill="#fff" opacity="0.052"/><circle cx="737.3" cy="794.1" r="1.30" fill="#fff" opacity="0.022"/><circle cx="1000.3" cy="875.8" r="0.60" fill="#fff" opacity="0.032"/><circle cx="1263.4" cy="39.5" r="0.95" fill="#fff" opacity="0.042"/><circle cx="1526.4" cy="121.2" r="1.30" fill="#fff" opacity="0.052"/>
  <circle cx="0.0" cy="24.1" r="0.50" fill="#fff" opacity="0.025" filter="url(#softGlow)"/><circle cx="332.2" cy="188.2" r="0.78" fill="#fff" opacity="0.033" filter="url(#softGlow)"/><circle cx="664.3" cy="352.3" r="1.06" fill="#fff" opacity="0.041" filter="url(#softGlow)"/><circle cx="996.5" cy="516.3" r="1.34" fill="#fff" opacity="0.049" filter="url(#softGlow)"/><circle cx="1328.6" cy="680.4" r="0.50" fill="#fff" opacity="0.057" filter="url(#softGlow)"/><circle cx="1660.8" cy="66.9" r="0.78" fill="#fff" opacity="0.025" filter="url(#softGlow)"/><circle cx="73.0" cy="230.9" r="1.06" fill="#fff" opacity="0.033" filter="url(#softGlow)"/><circle cx="405.1" cy="395.0" r="1.34" fill="#fff" opacity="0.041" filter="url(#softGlow)"/><circle cx="737.3" cy="559.1" r="0.50" fill="#fff" opacity="0.049" filter="url(#softGlow)"/><circle cx="1069.4" cy="723.2" r="0.78" fill="#fff" opacity="0.057" filter="url(#softGlow)"/><circle cx="1401.6" cy="109.6" r="1.06" fill="#fff" opacity="0.025" filter="url(#softGlow)"/><circle cx="1733.8" cy="273.7" r="1.34" fill="#fff" opacity="0.033" filter="url(#softGlow)"/><circle cx="145.9" cy="437.8" r="0.50" fill="#fff" opacity="0.041" filter="url(#softGlow)"/><circle cx="478.1" cy="601.9" r="0.78" fill="#fff" opacity="0.049" filter="url(#softGlow)"/><circle cx="810.2" cy="765.9" r="1.06" fill="#fff" opacity="0.057" filter="url(#softGlow)"/><circle cx="1142.4" cy="152.4" r="1.34" fill="#fff" opacity="0.025" filter="url(#softGlow)"/><circle cx="1474.6" cy="316.5" r="0.50" fill="#fff" opacity="0.033" filter="url(#softGlow)"/><circle cx="1806.7" cy="480.6" r="0.78" fill="#fff" opacity="0.041" filter="url(#softGlow)"/><circle cx="218.9" cy="644.6" r="1.06" fill="#fff" opacity="0.049" filter="url(#softGlow)"/><circle cx="551.0" cy="31.1" r="1.34" fill="#fff" opacity="0.057" filter="url(#softGlow)"/><circle cx="883.2" cy="195.2" r="0.50" fill="#fff" opacity="0.025" filter="url(#softGlow)"/><circle cx="1215.4" cy="359.3" r="0.78" fill="#fff" opacity="0.033" filter="url(#softGlow)"/><ellipse cx="1497.6000000000001" cy="129.6" rx="345.59999999999997" ry="64.8" fill="#fff8e8" opacity="0.045" filter="url(#softGlow)"/>
  <ellipse cx="422.4" cy="216" rx="192" ry="43.2" fill="#c8e8ff" opacity="0.035" filter="url(#softGlow)"/>
  <rect width="1920" height="1080" fill="url(#stageGlow)"/>
  <rect width="1920" height="1080" fill="url(#haze)" opacity="0.14"/>
  <rect width="1920" height="1080" fill="url(#filmGrade)" opacity="1"/>
  <rect width="1920" height="1080" fill="url(#vignette)" opacity="0.38"/>
  <rect x="0" y="972" width="1920" height="108" fill="#000" opacity="0.14"/>
</svg>