<?xml version="1.0" encoding="UTF-8"?>
<svg xmlns="http://www.w3.org/2000/svg" viewBox="0 0 960 540" width="960" height="540">
<defs>
      <linearGradient id="sky" x1="0" y1="0" x2="0" y2="1"><stop offset="0%" stop-color="#1a1040"/><stop offset="45%" stop-color="#2d2860"/><stop offset="100%" stop-color="#0a0e18"/></linearGradient>
      <linearGradient id="bld" x1="0" y1="0" x2="1" y2="1"><stop stop-color="#3d4a6a"/><stop offset="1" stop-color="#0a1020"/></linearGradient>
      <radialGradient id="moon" cx="0.5" cy="0.5" r="0.5"><stop offset="0%" stop-color="#fff8e8"/><stop offset="100%" stop-color="#fff8e800"/></radialGradient>
    </defs>
    <rect width="960" height="540" fill="url(#sky)"/>
    <circle cx="748.8000000000001" cy="75.60000000000001" r="36" fill="url(#moon)" opacity="0.95"/>
    <circle cx="748.8000000000001" cy="75.60000000000001" r="28" fill="#f5f0dc"/>
    <rect x="20" y="420" width="28" height="80" fill="#0f1628"/><rect x="20" y="420" width="28" height="80" fill="url(#bld)" opacity="0.5"/><rect x="26" y="432" width="8" height="10" rx="1" fill="#1a2438" opacity="0.4"/><rect x="40" y="432" width="8" height="10" rx="1" fill="#ffe4a8" opacity="0.85"/><rect x="26" y="454" width="8" height="10" rx="1" fill="#ffe4a8" opacity="0.85"/><rect x="40" y="454" width="8" height="10" rx="1" fill="#ffe4a8" opacity="0.85"/><rect x="26" y="476" width="8" height="10" rx="1" fill="#ffe4a8" opacity="0.85"/><rect x="40" y="476" width="8" height="10" rx="1" fill="#1a2438" opacity="0.4"/><rect x="72" y="383" width="40" height="117" fill="#0f1628"/><rect x="72" y="383" width="40" height="117" fill="url(#bld)" opacity="0.5"/><rect x="78" y="395" width="8" height="10" rx="1" fill="#ffe4a8" opacity="0.85"/><rect x="92" y="395" width="8" height="10" rx="1" fill="#ffe4a8" opacity="0.85"/><rect x="78" y="417" width="8" height="10" rx="1" fill="#ffe4a8" opacity="0.85"/><rect x="92" y="417" width="8" height="10" rx="1" fill="#1a2438" opacity="0.4"/><rect x="78" y="439" width="8" height="10" rx="1" fill="#1a2438" opacity="0.4"/><rect x="92" y="439" width="8" height="10" rx="1" fill="#ffe4a8" opacity="0.85"/><rect x="78" y="461" width="8" height="10" rx="1" fill="#ffe4a8" opacity="0.85"/><rect x="92" y="461" width="8" height="10" rx="1" fill="#ffe4a8" opacity="0.85"/><rect x="78" y="483" width="8" height="10" rx="1" fill="#ffe4a8" opacity="0.85"/><rect x="92" y="483" width="8" height="10" rx="1" fill="#1a2438" opacity="0.4"/><rect x="124" y="346" width="52" height="154" fill="#0f1628"/><rect x="124" y="346" width="52" height="154" fill="url(#bld)" opacity="0.5"/><rect x="130" y="358" width="8" height="10" rx="1" fill="#ffe4a8" opacity="0.85"/><rect x="144" y="358" width="8" height="10" rx="1" fill="#1a2438" opacity="0.4"/><rect x="158" y="358" width="8" height="10" rx="1" fill="#ffe4a8" opacity="0.85"/><rect x="130" y="380" width="8" height="10" rx="1" fill="#1a2438" opacity="0.4"/><rect x="144" y="380" width="8" height="10" rx="1" fill="#ffe4a8" opacity="0.85"/><rect x="158" y="380" width="8" height="10" rx="1" fill="#ffe4a8" opacity="0.85"/><rect x="130" y="402" width="8" height="10" rx="1" fill="#ffe4a8" opacity="0.85"/><rect x="144" y="402" width="8" height="10" rx="1" fill="#ffe4a8" opacity="0.85"/><rect x="158" y="402" width="8" height="10" rx="1" fill="#1a2438" opacity="0.4"/><rect x="130" y="424" width="8" height="10" rx="1" fill="#ffe4a8" opacity="0.85"/><rect x="144" y="424" width="8" height="10" rx="1" fill="#1a2438" opacity="0.4"/><rect x="158" y="424" width="8" height="10" rx="1" fill="#ffe4a8" opacity="0.85"/><rect x="130" y="446" width="8" height="10" rx="1" fill="#1a2438" opacity="0.4"/><rect x="144" y="446" width="8" height="10" rx="1" fill="#ffe4a8" opacity="0.85"/><rect x="158" y="446" width="8" height="10" rx="1" fill="#ffe4a8" opacity="0.85"/><rect x="130" y="468" width="8" height="10" rx="1" fill="#ffe4a8" opacity="0.85"/><rect x="144" y="468" width="8" height="10" rx="1" fill="#ffe4a8" opacity="0.85"/><rect x="158" y="468" width="8" height="10" rx="1" fill="#1a2438" opacity="0.4"/><rect x="130" y="490" width="8" height="10" rx="1" fill="#ffe4a8" opacity="0.85"/><rect x="144" y="490" width="8" height="10" rx="1" fill="#1a2438" opacity="0.4"/><rect x="158" y="490" width="8" height="10" rx="1" fill="#ffe4a8" opacity="0.85"/><rect x="176" y="309" width="64" height="191" fill="#0f1628"/><rect x="176" y="309" width="64" height="191" fill="url(#bld)" opacity="0.5"/><rect x="182" y="321" width="8" height="10" rx="1" fill="#1a2438" opacity="0.4"/><rect x="196" y="321" width="8" height="10" rx="1" fill="#ffe4a8" opacity="0.85"/><rect x="210" y="321" width="8" height="10" rx="1" fill="#ffe4a8" opacity="0.85"/><rect x="224" y="321" width="8" height="10" rx="1" fill="#1a2438" opacity="0.4"/><rect x="182" y="343" width="8" height="10" rx="1" fill="#ffe4a8" opacity="0.85"/><rect x="196" y="343" width="8" height="10" rx="1" fill="#ffe4a8" opacity="0.85"/><rect x="210" y="343" width="8" height="10" rx="1" fill="#1a2438" opacity="0.4"/><rect x="224" y="343" width="8" height="10" rx="1" fill="#ffe4a8" opacity="0.85"/><rect x="182" y="365" width="8" height="10" rx="1" fill="#ffe4a8" opacity="0.85"/><rect x="196" y="365" width="8" height="10" rx="1" fill="#1a2438" opacity="0.4"/><rect x="210" y="365" width="8" height="10" rx="1" fill="#ffe4a8" opacity="0.85"/><rect x="224" y="365" width="8" height="10" rx="1" fill="#ffe4a8" opacity="0.85"/><rect x="182" y="387" width="8" height="10" rx="1" fill="#1a2438" opacity="0.4"/><rect x="196" y="387" width="8" height="10" rx="1" fill="#ffe4a8" opacity="0.85"/><rect x="210" y="387" width="8" height="10" rx="1" fill="#ffe4a8" opacity="0.85"/><rect x="224" y="387" width="8" height="10" rx="1" fill="#1a2438" opacity="0.4"/><rect x="182" y="409" width="8" height="10" rx="1" fill="#ffe4a8" opacity="0.85"/><rect x="196" y="409" width="8" height="10" rx="1" fill="#ffe4a8" opacity="0.85"/><rect x="210" y="409" width="8" height="10" rx="1" fill="#1a2438" opacity="0.4"/><rect x="224" y="409" width="8" height="10" rx="1" fill="#ffe4a8" opacity="0.85"/><rect x="182" y="431" width="8" height="10" rx="1" fill="#ffe4a8" opacity="0.85"/><rect x="196" y="431" width="8" height="10" rx="1" fill="#1a2438" opacity="0.4"/><rect x="210" y="431" width="8" height="10" rx="1" fill="#ffe4a8" opacity="0.85"/><rect x="224" y="431" width="8" height="10" rx="1" fill="#ffe4a8" opacity="0.85"/><rect x="182" y="453" width="8" height="10" rx="1" fill="#1a2438" opacity="0.4"/><rect x="196" y="453" width="8" height="10" rx="1" fill="#ffe4a8" opacity="0.85"/><rect x="210" y="453" width="8" height="10" rx="1" fill="#ffe4a8" opacity="0.85"/><rect x="224" y="453" width="8" height="10" rx="1" fill="#1a2438" opacity="0.4"/><rect x="182" y="475" width="8" height="10" rx="1" fill="#ffe4a8" opacity="0.85"/><rect x="196" y="475" width="8" height="10" rx="1" fill="#ffe4a8" opacity="0.85"/><rect x="210" y="475" width="8" height="10" rx="1" fill="#1a2438" opacity="0.4"/><rect x="224" y="475" width="8" height="10" rx="1" fill="#ffe4a8" opacity="0.85"/><rect x="228" y="272" width="76" height="228" fill="#0f1628"/><rect x="228" y="272" width="76" height="228" fill="url(#bld)" opacity="0.5"/><rect x="234" y="284" width="8" height="10" rx="1" fill="#ffe4a8" opacity="0.85"/><rect x="248" y="284" width="8" height="10" rx="1" fill="#ffe4a8" opacity="0.85"/><rect x="262" y="284" width="8" height="10" rx="1" fill="#1a2438" opacity="0.4"/><rect x="276" y="284" width="8" height="10" rx="1" fill="#ffe4a8" opacity="0.85"/><rect x="290" y="284" width="8" height="10" rx="1" fill="#ffe4a8" opacity="0.85"/><rect x="234" y="306" width="8" height="10" rx="1" fill="#ffe4a8" opacity="0.85"/><rect x="248" y="306" width="8" height="10" rx="1" fill="#1a2438" opacity="0.4"/><rect x="262" y="306" width="8" height="10" rx="1" fill="#ffe4a8" opacity="0.85"/><rect x="276" y="306" width="8" height="10" rx="1" fill="#ffe4a8" opacity="0.85"/><rect x="290" y="306" width="8" height="10" rx="1" fill="#1a2438" opacity="0.4"/><rect x="234" y="328" width="8" height="10" rx="1" fill="#1a2438" opacity="0.4"/><rect x="248" y="328" width="8" height="10" rx="1" fill="#ffe4a8" opacity="0.85"/><rect x="262" y="328" width="8" height="10" rx="1" fill="#ffe4a8" opacity="0.85"/><rect x="276" y="328" width="8" height="10" rx="1" fill="#1a2438" opacity="0.4"/><rect x="290" y="328" width="8" height="10" rx="1" fill="#ffe4a8" opacity="0.85"/><rect x="234" y="350" width="8" height="10" rx="1" fill="#ffe4a8" opacity="0.85"/><rect x="248" y="350" width="8" height="10" rx="1" fill="#ffe4a8" opacity="0.85"/><rect x="262" y="350" width="8" height="10" rx="1" fill="#1a2438" opacity="0.4"/><rect x="276" y="350" width="8" height="10" rx="1" fill="#ffe4a8" opacity="0.85"/><rect x="290" y="350" width="8" height="10" rx="1" fill="#ffe4a8" opacity="0.85"/><rect x="234" y="372" width="8" height="10" rx="1" fill="#ffe4a8" opacity="0.85"/><rect x="248" y="372" width="8" height="10" rx="1" fill="#1a2438" opacity="0.4"/><rect x="262" y="372" width="8" height="10" rx="1" fill="#ffe4a8" opacity="0.85"/><rect x="276" y="372" width="8" height="10" rx="1" fill="#ffe4a8" opacity="0.85"/><rect x="290" y="372" width="8" height="10" rx="1" fill="#1a2438" opacity="0.4"/><rect x="234" y="394" width="8" height="10" rx="1" fill="#1a2438" opacity="0.4"/><rect x="248" y="394" width="8" height="10" rx="1" fill="#ffe4a8" opacity="0.85"/><rect x="262" y="394" width="8" height="10" rx="1" fill="#ffe4a8" opacity="0.85"/><rect x="276" y="394" width="8" height="10" rx="1" fill="#1a2438" opacity="0.4"/><rect x="290" y="394" width="8" height="10" rx="1" fill="#ffe4a8" opacity="0.85"/><rect x="234" y="416" width="8" height="10" rx="1" fill="#ffe4a8" opacity="0.85"/><rect x="248" y="416" width="8" height="10" rx="1" fill="#ffe4a8" opacity="0.85"/><rect x="262" y="416" width="8" height="10" rx="1" fill="#1a2438" opacity="0.4"/><rect x="276" y="416" width="8" height="10" rx="1" fill="#ffe4a8" opacity="0.85"/><rect x="290" y="416" width="8" height="10" rx="1" fill="#ffe4a8" opacity="0.85"/><rect x="234" y="438" width="8" height="10" rx="1" fill="#ffe4a8" opacity="0.85"/><rect x="248" y="438" width="8" height="10" rx="1" fill="#1a2438" opacity="0.4"/><rect x="262" y="438" width="8" height="10" rx="1" fill="#ffe4a8" opacity="0.85"/><rect x="276" y="438" width="8" height="10" rx="1" fill="#ffe4a8" opacity="0.85"/><rect x="290" y="438" width="8" height="10" rx="1" fill="#1a2438" opacity="0.4"/><rect x="234" y="460" width="8" height="10" rx="1" fill="#1a2438" opacity="0.4"/><rect x="248" y="460" width="8" height="10" rx="1" fill="#ffe4a8" opacity="0.85"/><rect x="262" y="460" width="8" height="10" rx="1" fill="#ffe4a8" opacity="0.85"/><rect x="276" y="460" width="8" height="10" rx="1" fill="#1a2438" opacity="0.4"/><rect x="290" y="460" width="8" height="10" rx="1" fill="#ffe4a8" opacity="0.85"/><rect x="234" y="482" width="8" height="10" rx="1" fill="#ffe4a8" opacity="0.85"/><rect x="248" y="482" width="8" height="10" rx="1" fill="#ffe4a8" opacity="0.85"/><rect x="262" y="482" width="8" height="10" rx="1" fill="#1a2438" opacity="0.4"/><rect x="276" y="482" width="8" height="10" rx="1" fill="#ffe4a8" opacity="0.85"/><rect x="290" y="482" width="8" height="10" rx="1" fill="#ffe4a8" opacity="0.85"/><rect x="280" y="235" width="28" height="265" fill="#0f1628"/><rect x="280" y="235" width="28" height="265" fill="url(#bld)" opacity="0.5"/><rect x="286" y="247" width="8" height="10" rx="1" fill="#ffe4a8" opacity="0.85"/><rect x="300" y="247" width="8" height="10" rx="1" fill="#1a2438" opacity="0.4"/><rect x="286" y="269" width="8" height="10" rx="1" fill="#1a2438" opacity="0.4"/><rect x="300" y="269" width="8" height="10" rx="1" fill="#ffe4a8" opacity="0.85"/><rect x="286" y="291" width="8" height="10" rx="1" fill="#ffe4a8" opacity="0.85"/><rect x="300" y="291" width="8" height="10" rx="1" fill="#ffe4a8" opacity="0.85"/><rect x="286" y="313" width="8" height="10" rx="1" fill="#ffe4a8" opacity="0.85"/><rect x="300" y="313" width="8" height="10" rx="1" fill="#1a2438" opacity="0.4"/><rect x="286" y="335" width="8" height="10" rx="1" fill="#1a2438" opacity="0.4"/><rect x="300" y="335" width="8" height="10" rx="1" fill="#ffe4a8" opacity="0.85"/><rect x="286" y="357" width="8" height="10" rx="1" fill="#ffe4a8" opacity="0.85"/><rect x="300" y="357" width="8" height="10" rx="1" fill="#ffe4a8" opacity="0.85"/><rect x="286" y="379" width="8" height="10" rx="1" fill="#ffe4a8" opacity="0.85"/><rect x="300" y="379" width="8" height="10" rx="1" fill="#1a2438" opacity="0.4"/><rect x="286" y="401" width="8" height="10" rx="1" fill="#1a2438" opacity="0.4"/><rect x="300" y="401" width="8" height="10" rx="1" fill="#ffe4a8" opacity="0.85"/><rect x="286" y="423" width="8" height="10" rx="1" fill="#ffe4a8" opacity="0.85"/><rect x="300" y="423" width="8" height="10" rx="1" fill="#ffe4a8" opacity="0.85"/><rect x="286" y="445" width="8" height="10" rx="1" fill="#ffe4a8" opacity="0.85"/><rect x="300" y="445" width="8" height="10" rx="1" fill="#1a2438" opacity="0.4"/><rect x="286" y="467" width="8" height="10" rx="1" fill="#1a2438" opacity="0.4"/><rect x="300" y="467" width="8" height="10" rx="1" fill="#ffe4a8" opacity="0.85"/><rect x="286" y="489" width="8" height="10" rx="1" fill="#ffe4a8" opacity="0.85"/><rect x="300" y="489" width="8" height="10" rx="1" fill="#ffe4a8" opacity="0.85"/><rect x="332" y="418" width="40" height="82" fill="#0f1628"/><rect x="332" y="418" width="40" height="82" fill="url(#bld)" opacity="0.5"/><rect x="338" y="430" width="8" height="10" rx="1" fill="#1a2438" opacity="0.4"/><rect x="352" y="430" width="8" height="10" rx="1" fill="#ffe4a8" opacity="0.85"/><rect x="338" y="452" width="8" height="10" rx="1" fill="#ffe4a8" opacity="0.85"/><rect x="352" y="452" width="8" height="10" rx="1" fill="#ffe4a8" opacity="0.85"/><rect x="338" y="474" width="8" height="10" rx="1" fill="#ffe4a8" opacity="0.85"/><rect x="352" y="474" width="8" height="10" rx="1" fill="#1a2438" opacity="0.4"/><rect x="384" y="381" width="52" height="119" fill="#0f1628"/><rect x="384" y="381" width="52" height="119" fill="url(#bld)" opacity="0.5"/><rect x="390" y="393" width="8" height="10" rx="1" fill="#ffe4a8" opacity="0.85"/><rect x="404" y="393" width="8" height="10" rx="1" fill="#ffe4a8" opacity="0.85"/><rect x="418" y="393" width="8" height="10" rx="1" fill="#1a2438" opacity="0.4"/><rect x="390" y="415" width="8" height="10" rx="1" fill="#ffe4a8" opacity="0.85"/><rect x="404" y="415" width="8" height="10" rx="1" fill="#1a2438" opacity="0.4"/><rect x="418" y="415" width="8" height="10" rx="1" fill="#ffe4a8" opacity="0.85"/><rect x="390" y="437" width="8" height="10" rx="1" fill="#1a2438" opacity="0.4"/><rect x="404" y="437" width="8" height="10" rx="1" fill="#ffe4a8" opacity="0.85"/><rect x="418" y="437" width="8" height="10" rx="1" fill="#ffe4a8" opacity="0.85"/><rect x="390" y="459" width="8" height="10" rx="1" fill="#ffe4a8" opacity="0.85"/><rect x="404" y="459" width="8" height="10" rx="1" fill="#ffe4a8" opacity="0.85"/><rect x="418" y="459" width="8" height="10" rx="1" fill="#1a2438" opacity="0.4"/><rect x="390" y="481" width="8" height="10" rx="1" fill="#ffe4a8" opacity="0.85"/><rect x="404" y="481" width="8" height="10" rx="1" fill="#1a2438" opacity="0.4"/><rect x="418" y="481" width="8" height="10" rx="1" fill="#ffe4a8" opacity="0.85"/><rect x="436" y="344" width="64" height="156" fill="#0f1628"/><rect x="436" y="344" width="64" height="156" fill="url(#bld)" opacity="0.5"/><rect x="442" y="356" width="8" height="10" rx="1" fill="#ffe4a8" opacity="0.85"/><rect x="456" y="356" width="8" height="10" rx="1" fill="#1a2438" opacity="0.4"/><rect x="470" y="356" width="8" height="10" rx="1" fill="#ffe4a8" opacity="0.85"/><rect x="484" y="356" width="8" height="10" rx="1" fill="#ffe4a8" opacity="0.85"/><rect x="442" y="378" width="8" height="10" rx="1" fill="#1a2438" opacity="0.4"/><rect x="456" y="378" width="8" height="10" rx="1" fill="#ffe4a8" opacity="0.85"/><rect x="470" y="378" width="8" height="10" rx="1" fill="#ffe4a8" opacity="0.85"/><rect x="484" y="378" width="8" height="10" rx="1" fill="#1a2438" opacity="0.4"/><rect x="442" y="400" width="8" height="10" rx="1" fill="#ffe4a8" opacity="0.85"/><rect x="456" y="400" width="8" height="10" rx="1" fill="#ffe4a8" opacity="0.85"/><rect x="470" y="400" width="8" height="10" rx="1" fill="#1a2438" opacity="0.4"/><rect x="484" y="400" width="8" height="10" rx="1" fill="#ffe4a8" opacity="0.85"/><rect x="442" y="422" width="8" height="10" rx="1" fill="#ffe4a8" opacity="0.85"/><rect x="456" y="422" width="8" height="10" rx="1" fill="#1a2438" opacity="0.4"/><rect x="470" y="422" width="8" height="10" rx="1" fill="#ffe4a8" opacity="0.85"/><rect x="484" y="422" width="8" height="10" rx="1" fill="#ffe4a8" opacity="0.85"/><rect x="442" y="444" width="8" height="10" rx="1" fill="#1a2438" opacity="0.4"/><rect x="456" y="444" width="8" height="10" rx="1" fill="#ffe4a8" opacity="0.85"/><rect x="470" y="444" width="8" height="10" rx="1" fill="#ffe4a8" opacity="0.85"/><rect x="484" y="444" width="8" height="10" rx="1" fill="#1a2438" opacity="0.4"/><rect x="442" y="466" width="8" height="10" rx="1" fill="#ffe4a8" opacity="0.85"/><rect x="456" y="466" width="8" height="10" rx="1" fill="#ffe4a8" opacity="0.85"/><rect x="470" y="466" width="8" height="10" rx="1" fill="#1a2438" opacity="0.4"/><rect x="484" y="466" width="8" height="10" rx="1" fill="#ffe4a8" opacity="0.85"/><rect x="442" y="488" width="8" height="10" rx="1" fill="#ffe4a8" opacity="0.85"/><rect x="456" y="488" width="8" height="10" rx="1" fill="#1a2438" opacity="0.4"/><rect x="470" y="488" width="8" height="10" rx="1" fill="#ffe4a8" opacity="0.85"/><rect x="484" y="488" width="8" height="10" rx="1" fill="#ffe4a8" opacity="0.85"/><rect x="488" y="307" width="76" height="193" fill="#0f1628"/><rect x="488" y="307" width="76" height="193" fill="url(#bld)" opacity="0.5"/><rect x="494" y="319" width="8" height="10" rx="1" fill="#1a2438" opacity="0.4"/><rect x="508" y="319" width="8" height="10" rx="1" fill="#ffe4a8" opacity="0.85"/><rect x="522" y="319" width="8" height="10" rx="1" fill="#ffe4a8" opacity="0.85"/><rect x="536" y="319" width="8" height="10" rx="1" fill="#1a2438" opacity="0.4"/><rect x="550" y="319" width="8" height="10" rx="1" fill="#ffe4a8" opacity="0.85"/><rect x="494" y="341" width="8" height="10" rx="1" fill="#ffe4a8" opacity="0.85"/><rect x="508" y="341" width="8" height="10" rx="1" fill="#ffe4a8" opacity="0.85"/><rect x="522" y="341" width="8" height="10" rx="1" fill="#1a2438" opacity="0.4"/><rect x="536" y="341" width="8" height="10" rx="1" fill="#ffe4a8" opacity="0.85"/><rect x="550" y="341" width="8" height="10" rx="1" fill="#ffe4a8" opacity="0.85"/><rect x="494" y="363" width="8" height="10" rx="1" fill="#ffe4a8" opacity="0.85"/><rect x="508" y="363" width="8" height="10" rx="1" fill="#1a2438" opacity="0.4"/><rect x="522" y="363" width="8" height="10" rx="1" fill="#ffe4a8" opacity="0.85"/><rect x="536" y="363" width="8" height="10" rx="1" fill="#ffe4a8" opacity="0.85"/><rect x="550" y="363" width="8" height="10" rx="1" fill="#1a2438" opacity="0.4"/><rect x="494" y="385" width="8" height="10" rx="1" fill="#1a2438" opacity="0.4"/><rect x="508" y="385" width="8" height="10" rx="1" fill="#ffe4a8" opacity="0.85"/><rect x="522" y="385" width="8" height="10" rx="1" fill="#ffe4a8" opacity="0.85"/><rect x="536" y="385" width="8" height="10" rx="1" fill="#1a2438" opacity="0.4"/><rect x="550" y="385" width="8" height="10" rx="1" fill="#ffe4a8" opacity="0.85"/><rect x="494" y="407" width="8" height="10" rx="1" fill="#ffe4a8" opacity="0.85"/><rect x="508" y="407" width="8" height="10" rx="1" fill="#ffe4a8" opacity="0.85"/><rect x="522" y="407" width="8" height="10" rx="1" fill="#1a2438" opacity="0.4"/><rect x="536" y="407" width="8" height="10" rx="1" fill="#ffe4a8" opacity="0.85"/><rect x="550" y="407" width="8" height="10" rx="1" fill="#ffe4a8" opacity="0.85"/><rect x="494" y="429" width="8" height="10" rx="1" fill="#ffe4a8" opacity="0.85"/><rect x="508" y="429" width="8" height="10" rx="1" fill="#1a2438" opacity="0.4"/><rect x="522" y="429" width="8" height="10" rx="1" fill="#ffe4a8" opacity="0.85"/><rect x="536" y="429" width="8" height="10" rx="1" fill="#ffe4a8" opacity="0.85"/><rect x="550" y="429" width="8" height="10" rx="1" fill="#1a2438" opacity="0.4"/><rect x="494" y="451" width="8" height="10" rx="1" fill="#1a2438" opacity="0.4"/><rect x="508" y="451" width="8" height="10" rx="1" fill="#ffe4a8" opacity="0.85"/><rect x="522" y="451" width="8" height="10" rx="1" fill="#ffe4a8" opacity="0.85"/><rect x="536" y="451" width="8" height="10" rx="1" fill="#1a2438" opacity="0.4"/><rect x="550" y="451" width="8" height="10" rx="1" fill="#ffe4a8" opacity="0.85"/><rect x="494" y="473" width="8" height="10" rx="1" fill="#ffe4a8" opacity="0.85"/><rect x="508" y="473" width="8" height="10" rx="1" fill="#ffe4a8" opacity="0.85"/><rect x="522" y="473" width="8" height="10" rx="1" fill="#1a2438" opacity="0.4"/><rect x="536" y="473" width="8" height="10" rx="1" fill="#ffe4a8" opacity="0.85"/><rect x="550" y="473" width="8" height="10" rx="1" fill="#ffe4a8" opacity="0.85"/><rect x="540" y="270" width="28" height="230" fill="#0f1628"/><rect x="540" y="270" width="28" height="230" fill="url(#bld)" opacity="0.5"/><rect x="546" y="282" width="8" height="10" rx="1" fill="#ffe4a8" opacity="0.85"/><rect x="560" y="282" width="8" height="10" rx="1" fill="#ffe4a8" opacity="0.85"/><rect x="546" y="304" width="8" height="10" rx="1" fill="#ffe4a8" opacity="0.85"/><rect x="560" y="304" width="8" height="10" rx="1" fill="#1a2438" opacity="0.4"/><rect x="546" y="326" width="8" height="10" rx="1" fill="#1a2438" opacity="0.4"/><rect x="560" y="326" width="8" height="10" rx="1" fill="#ffe4a8" opacity="0.85"/><rect x="546" y="348" width="8" height="10" rx="1" fill="#ffe4a8" opacity="0.85"/><rect x="560" y="348" width="8" height="10" rx="1" fill="#ffe4a8" opacity="0.85"/><rect x="546" y="370" width="8" height="10" rx="1" fill="#ffe4a8" opacity="0.85"/><rect x="560" y="370" width="8" height="10" rx="1" fill="#1a2438" opacity="0.4"/><rect x="546" y="392" width="8" height="10" rx="1" fill="#1a2438" opacity="0.4"/><rect x="560" y="392" width="8" height="10" rx="1" fill="#ffe4a8" opacity="0.85"/><rect x="546" y="414" width="8" height="10" rx="1" fill="#ffe4a8" opacity="0.85"/><rect x="560" y="414" width="8" height="10" rx="1" fill="#ffe4a8" opacity="0.85"/><rect x="546" y="436" width="8" height="10" rx="1" fill="#ffe4a8" opacity="0.85"/><rect x="560" y="436" width="8" height="10" rx="1" fill="#1a2438" opacity="0.4"/><rect x="546" y="458" width="8" height="10" rx="1" fill="#1a2438" opacity="0.4"/><rect x="560" y="458" width="8" height="10" rx="1" fill="#ffe4a8" opacity="0.85"/><rect x="546" y="480" width="8" height="10" rx="1" fill="#ffe4a8" opacity="0.85"/><rect x="560" y="480" width="8" height="10" rx="1" fill="#ffe4a8" opacity="0.85"/><rect x="592" y="233" width="40" height="267" fill="#0f1628"/><rect x="592" y="233" width="40" height="267" fill="url(#bld)" opacity="0.5"/><rect x="598" y="245" width="8" height="10" rx="1" fill="#ffe4a8" opacity="0.85"/><rect x="612" y="245" width="8" height="10" rx="1" fill="#1a2438" opacity="0.4"/><rect x="598" y="267" width="8" height="10" rx="1" fill="#1a2438" opacity="0.4"/><rect x="612" y="267" width="8" height="10" rx="1" fill="#ffe4a8" opacity="0.85"/><rect x="598" y="289" width="8" height="10" rx="1" fill="#ffe4a8" opacity="0.85"/><rect x="612" y="289" width="8" height="10" rx="1" fill="#ffe4a8" opacity="0.85"/><rect x="598" y="311" width="8" height="10" rx="1" fill="#ffe4a8" opacity="0.85"/><rect x="612" y="311" width="8" height="10" rx="1" fill="#1a2438" opacity="0.4"/><rect x="598" y="333" width="8" height="10" rx="1" fill="#1a2438" opacity="0.4"/><rect x="612" y="333" width="8" height="10" rx="1" fill="#ffe4a8" opacity="0.85"/><rect x="598" y="355" width="8" height="10" rx="1" fill="#ffe4a8" opacity="0.85"/><rect x="612" y="355" width="8" height="10" rx="1" fill="#ffe4a8" opacity="0.85"/><rect x="598" y="377" width="8" height="10" rx="1" fill="#ffe4a8" opacity="0.85"/><rect x="612" y="377" width="8" height="10" rx="1" fill="#1a2438" opacity="0.4"/><rect x="598" y="399" width="8" height="10" rx="1" fill="#1a2438" opacity="0.4"/><rect x="612" y="399" width="8" height="10" rx="1" fill="#ffe4a8" opacity="0.85"/><rect x="598" y="421" width="8" height="10" rx="1" fill="#ffe4a8" opacity="0.85"/><rect x="612" y="421" width="8" height="10" rx="1" fill="#ffe4a8" opacity="0.85"/><rect x="598" y="443" width="8" height="10" rx="1" fill="#ffe4a8" opacity="0.85"/><rect x="612" y="443" width="8" height="10" rx="1" fill="#1a2438" opacity="0.4"/><rect x="598" y="465" width="8" height="10" rx="1" fill="#1a2438" opacity="0.4"/><rect x="612" y="465" width="8" height="10" rx="1" fill="#ffe4a8" opacity="0.85"/><rect x="598" y="487" width="8" height="10" rx="1" fill="#ffe4a8" opacity="0.85"/><rect x="612" y="487" width="8" height="10" rx="1" fill="#ffe4a8" opacity="0.85"/><rect x="644" y="416" width="52" height="84" fill="#0f1628"/><rect x="644" y="416" width="52" height="84" fill="url(#bld)" opacity="0.5"/><rect x="650" y="428" width="8" height="10" rx="1" fill="#1a2438" opacity="0.4"/><rect x="664" y="428" width="8" height="10" rx="1" fill="#ffe4a8" opacity="0.85"/><rect x="678" y="428" width="8" height="10" rx="1" fill="#ffe4a8" opacity="0.85"/><rect x="650" y="450" width="8" height="10" rx="1" fill="#ffe4a8" opacity="0.85"/><rect x="664" y="450" width="8" height="10" rx="1" fill="#ffe4a8" opacity="0.85"/><rect x="678" y="450" width="8" height="10" rx="1" fill="#1a2438" opacity="0.4"/><rect x="650" y="472" width="8" height="10" rx="1" fill="#ffe4a8" opacity="0.85"/><rect x="664" y="472" width="8" height="10" rx="1" fill="#1a2438" opacity="0.4"/><rect x="678" y="472" width="8" height="10" rx="1" fill="#ffe4a8" opacity="0.85"/><rect x="696" y="379" width="64" height="121" fill="#0f1628"/><rect x="696" y="379" width="64" height="121" fill="url(#bld)" opacity="0.5"/><rect x="702" y="391" width="8" height="10" rx="1" fill="#ffe4a8" opacity="0.85"/><rect x="716" y="391" width="8" height="10" rx="1" fill="#ffe4a8" opacity="0.85"/><rect x="730" y="391" width="8" height="10" rx="1" fill="#1a2438" opacity="0.4"/><rect x="744" y="391" width="8" height="10" rx="1" fill="#ffe4a8" opacity="0.85"/><rect x="702" y="413" width="8" height="10" rx="1" fill="#ffe4a8" opacity="0.85"/><rect x="716" y="413" width="8" height="10" rx="1" fill="#1a2438" opacity="0.4"/><rect x="730" y="413" width="8" height="10" rx="1" fill="#ffe4a8" opacity="0.85"/><rect x="744" y="413" width="8" height="10" rx="1" fill="#ffe4a8" opacity="0.85"/><rect x="702" y="435" width="8" height="10" rx="1" fill="#1a2438" opacity="0.4"/><rect x="716" y="435" width="8" height="10" rx="1" fill="#ffe4a8" opacity="0.85"/><rect x="730" y="435" width="8" height="10" rx="1" fill="#ffe4a8" opacity="0.85"/><rect x="744" y="435" width="8" height="10" rx="1" fill="#1a2438" opacity="0.4"/><rect x="702" y="457" width="8" height="10" rx="1" fill="#ffe4a8" opacity="0.85"/><rect x="716" y="457" width="8" height="10" rx="1" fill="#ffe4a8" opacity="0.85"/><rect x="730" y="457" width="8" height="10" rx="1" fill="#1a2438" opacity="0.4"/><rect x="744" y="457" width="8" height="10" rx="1" fill="#ffe4a8" opacity="0.85"/><rect x="702" y="479" width="8" height="10" rx="1" fill="#ffe4a8" opacity="0.85"/><rect x="716" y="479" width="8" height="10" rx="1" fill="#1a2438" opacity="0.4"/><rect x="730" y="479" width="8" height="10" rx="1" fill="#ffe4a8" opacity="0.85"/><rect x="744" y="479" width="8" height="10" rx="1" fill="#ffe4a8" opacity="0.85"/>
    <rect x="0" y="500" width="960" height="40" fill="#080c14"/>
</svg>