<?xml version="1.0" encoding="UTF-8"?>
<svg xmlns="http://www.w3.org/2000/svg" viewBox="0 0 1920 1080" width="1920" height="1080">
<defs>
  <linearGradient id="skyTop" x1="0" y1="0" x2="0" y2="1">
    <stop offset="0%" stop-color="#121828"/>
    <stop offset="32%" stop-color="#243050"/>
    <stop offset="58%" stop-color="#2a3848"/>
    <stop offset="100%" stop-color="#0a0e14"/>
  </linearGradient>
  <linearGradient id="skyDay" x1="0" y1="0" x2="0" y2="1">
    <stop offset="0%" stop-color="#6eb4e0"/>
    <stop offset="38%" stop-color="#a8cce8"/>
    <stop offset="70%" stop-color="#d8c098"/>
    <stop offset="100%" stop-color="#6a8868"/>
  </linearGradient>
  <linearGradient id="skySunset" x1="0" y1="0" x2="0" y2="1">
    <stop offset="0%" stop-color="#ff6b4a"/>
    <stop offset="28%" stop-color="#d84888"/>
    <stop offset="55%" stop-color="#683878"/>
    <stop offset="100%" stop-color="#120818"/>
  </linearGradient>
  <linearGradient id="haze" x1="0" y1="0.4" x2="0" y2="1">
    <stop offset="0%" stop-color="#fff" stop-opacity="0"/>
    <stop offset="100%" stop-color="#c8d8f0" stop-opacity="0.22"/>
  </linearGradient>
  <filter id="softGlow" x="-40%" y="-40%" width="180%" height="180%">
    <feGaussianBlur stdDeviation="4" result="b"/>
    <feMerge><feMergeNode in="b"/><feMergeNode in="SourceGraphic"/></feMerge>
  </filter>
  <filter id="neonGlow" x="-60%" y="-60%" width="220%" height="220%">
    <feGaussianBlur stdDeviation="6" result="b"/>
    <feMerge><feMergeNode in="b"/><feMergeNode in="b"/><feMergeNode in="SourceGraphic"/></feMerge>
  </filter>
  <filter id="paintSoft" x="-2%" y="-2%" width="104%" height="104%">
    <feGaussianBlur stdDeviation="0.6"/>
  </filter>
  <radialGradient id="sunDisc" cx="0.5" cy="0.5" r="0.5">
    <stop offset="0%" stop-color="#fff8e8"/>
    <stop offset="55%" stop-color="#ffd080"/>
    <stop offset="100%" stop-color="#ff904000"/>
  </radialGradient>
  <radialGradient id="moonGlow" cx="0.5" cy="0.5" r="0.5">
    <stop offset="0%" stop-color="#fffef8"/>
    <stop offset="40%" stop-color="#e8e0f0"/>
    <stop offset="100%" stop-color="#e8e0f000"/>
  </radialGradient>
  <linearGradient id="wallWarm" x1="0" y1="0" x2="1" y2="1">
    <stop offset="0%" stop-color="#fff0e4"/>
    <stop offset="45%" stop-color="#e8c8b0"/>
    <stop offset="100%" stop-color="#c8a088"/>
  </linearGradient>
  <linearGradient id="wallCool" x1="0" y1="0" x2="0" y2="1">
    <stop offset="0%" stop-color="#eef2f8"/>
    <stop offset="100%" stop-color="#b8c0d0"/>
  </linearGradient>
  <linearGradient id="floorWood" x1="0" y1="0.6" x2="0" y2="1">
    <stop offset="0%" stop-color="#a88870"/>
    <stop offset="100%" stop-color="#685040"/>
  </linearGradient>
  <radialGradient id="lampGlow" cx="0.5" cy="0.5" r="0.5">
    <stop offset="0%" stop-color="#fff8e0"/>
    <stop offset="70%" stop-color="#ffd898" stop-opacity="0.35"/>
    <stop offset="100%" stop-color="#ffd898" stop-opacity="0"/>
  </radialGradient>
  <radialGradient id="vignette" cx="0.5" cy="0.42" r="0.78">
    <stop offset="55%" stop-color="#000" stop-opacity="0"/>
    <stop offset="100%" stop-color="#030508" stop-opacity="0.38"/>
  </radialGradient>
  <linearGradient id="filmGrade" x1="0" y1="0" x2="0" y2="1">
    <stop offset="0%" stop-color="#283858" stop-opacity="0.14"/>
    <stop offset="42%" stop-color="#000" stop-opacity="0"/>
    <stop offset="100%" stop-color="#000" stop-opacity="0.32"/>
  </linearGradient>
  <radialGradient id="stageGlow" cx="0.5" cy="0.62" r="0.55">
    <stop offset="0%" stop-color="#fff" stop-opacity="0.06"/>
    <stop offset="100%" stop-color="#fff" stop-opacity="0"/>
  </radialGradient>
  <filter id="filmGrain" x="0" y="0" width="100%" height="100%">
    <feTurbulence type="fractalNoise" baseFrequency="0.85" numOctaves="3" seed="12" result="n"/>
    <feColorMatrix in="n" type="matrix" values="0 0 0 0 0  0 0 0 0 0  0 0 0 0 0  0 0 0 0.04 0" result="a"/>
    <feBlend in="SourceGraphic" in2="a" mode="overlay"/>
  </filter>
  <linearGradient id="rimLight" x1="0" y1="0" x2="1" y2="0.3">
    <stop offset="0%" stop-color="#fff" stop-opacity="0.12"/>
    <stop offset="35%" stop-color="#fff" stop-opacity="0"/>
    <stop offset="100%" stop-color="#a8c8ff" stop-opacity="0.08"/>
  </linearGradient>
</defs>
  <rect width="1920" height="1080" fill="url(#skyDay)"/>
  <polygon points="1382.3999999999999,86.4 2599.827035850203,-357.99555846226497 2616.6243065718845,-308.9559928307028" fill="#fff8e8" opacity="0.04"/><polygon points="1382.3999999999999,86.4 2631.447081690194,-259.2839419487251 2644.2716479269657,-209.0588705016041" fill="#fff8e8" opacity="0.04"/><polygon points="1382.3999999999999,86.4 2655.0774887119824,-158.3611278895447 2663.8473170051107,-107.27181968578455" fill="#fff8e8" opacity="0.04"/><polygon points="1382.3999999999999,86.4 2670.567102951879,-55.872677884978515 2675.22609632825,-4.2459301494424295" fill="#fff8e8" opacity="0.04"/><polygon points="1382.3999999999999,86.4 2677.8168437386876,47.52583173756567 2678.3352005399984,99.35978400108004" fill="#fff8e8" opacity="0.04"/><polygon points="1382.3999999999999,86.4 2676.780337471876,151.17300337479918 2673.154741983544,202.88259976062238" fill="#fff8e8" opacity="0.04"/><polygon points="1382.3999999999999,86.4 2667.4642142543653,254.40584883512452 2659.7178579147903,305.6603243908269" fill="#fff8e8" opacity="0.04"/><polygon points="1382.3999999999999,86.4 2649.928065482496,356.5640302005452 2638.1104985369957,407.03553119386186" fill="#fff8e8" opacity="0.04"/><polygon points="1382.3999999999999,86.4 2624.2840626644556,456.994083735867 2608.4708772127897,506.3597647997494" fill="#fff8e8" opacity="0.04"/>
  <polygon points="0,777.6 422.4,410.4 806.4,777.6" fill="#384858" opacity="0.85"/>
  <polygon points="537.6,777.6 998.4000000000001,345.6 1497.6000000000001,777.6" fill="#506878" opacity="0.9"/>
  <polygon points="1056,777.6 1497.6000000000001,432 1920,777.6" fill="#3a4858"/>
  <polygon points="921.5999999999999,410.4 998.4000000000001,345.6 1075.2,410.4" fill="#fff" opacity="0.75"/>
  <ellipse cx="960" cy="842.4" rx="1440" ry="302.40000000000003" fill="#3a8848"/>
  <ellipse cx="960" cy="820.8" rx="1056" ry="194.4" fill="#58a858"/>
  <rect x="15" y="669.6" width="10" height="70" fill="#4a3828"/>
    <ellipse cx="20" cy="626.4" rx="42" ry="55" fill="#e87898" opacity="0.88"/>
    <ellipse cx="35" cy="648" rx="32" ry="40" fill="#f0a0b8" opacity="0.75"/><rect x="83" y="669.6" width="10" height="100" fill="#4a3828"/>
    <ellipse cx="88" cy="626.4" rx="42" ry="55" fill="#2a7838" opacity="0.88"/>
    <ellipse cx="103" cy="648" rx="32" ry="40" fill="#388848" opacity="0.75"/><rect x="151" y="669.6" width="10" height="130" fill="#4a3828"/>
    <ellipse cx="156" cy="626.4" rx="42" ry="55" fill="#2a7838" opacity="0.88"/>
    <ellipse cx="171" cy="648" rx="32" ry="40" fill="#388848" opacity="0.75"/><rect x="219" y="669.6" width="10" height="160" fill="#4a3828"/>
    <ellipse cx="224" cy="626.4" rx="42" ry="55" fill="#e87898" opacity="0.88"/>
    <ellipse cx="239" cy="648" rx="32" ry="40" fill="#f0a0b8" opacity="0.75"/><rect x="287" y="669.6" width="10" height="70" fill="#4a3828"/>
    <ellipse cx="292" cy="626.4" rx="42" ry="55" fill="#2a7838" opacity="0.88"/>
    <ellipse cx="307" cy="648" rx="32" ry="40" fill="#388848" opacity="0.75"/><rect x="355" y="669.6" width="10" height="100" fill="#4a3828"/>
    <ellipse cx="360" cy="626.4" rx="42" ry="55" fill="#2a7838" opacity="0.88"/>
    <ellipse cx="375" cy="648" rx="32" ry="40" fill="#388848" opacity="0.75"/><rect x="423" y="669.6" width="10" height="130" fill="#4a3828"/>
    <ellipse cx="428" cy="626.4" rx="42" ry="55" fill="#e87898" opacity="0.88"/>
    <ellipse cx="443" cy="648" rx="32" ry="40" fill="#f0a0b8" opacity="0.75"/><rect x="491" y="669.6" width="10" height="160" fill="#4a3828"/>
    <ellipse cx="496" cy="626.4" rx="42" ry="55" fill="#2a7838" opacity="0.88"/>
    <ellipse cx="511" cy="648" rx="32" ry="40" fill="#388848" opacity="0.75"/><rect x="559" y="669.6" width="10" height="70" fill="#4a3828"/>
    <ellipse cx="564" cy="626.4" rx="42" ry="55" fill="#2a7838" opacity="0.88"/>
    <ellipse cx="579" cy="648" rx="32" ry="40" fill="#388848" opacity="0.75"/><rect x="627" y="669.6" width="10" height="100" fill="#4a3828"/>
    <ellipse cx="632" cy="626.4" rx="42" ry="55" fill="#e87898" opacity="0.88"/>
    <ellipse cx="647" cy="648" rx="32" ry="40" fill="#f0a0b8" opacity="0.75"/><rect x="695" y="669.6" width="10" height="130" fill="#4a3828"/>
    <ellipse cx="700" cy="626.4" rx="42" ry="55" fill="#2a7838" opacity="0.88"/>
    <ellipse cx="715" cy="648" rx="32" ry="40" fill="#388848" opacity="0.75"/><rect x="763" y="669.6" width="10" height="160" fill="#4a3828"/>
    <ellipse cx="768" cy="626.4" rx="42" ry="55" fill="#2a7838" opacity="0.88"/>
    <ellipse cx="783" cy="648" rx="32" ry="40" fill="#388848" opacity="0.75"/><rect x="831" y="669.6" width="10" height="70" fill="#4a3828"/>
    <ellipse cx="836" cy="626.4" rx="42" ry="55" fill="#e87898" opacity="0.88"/>
    <ellipse cx="851" cy="648" rx="32" ry="40" fill="#f0a0b8" opacity="0.75"/><rect x="899" y="669.6" width="10" height="100" fill="#4a3828"/>
    <ellipse cx="904" cy="626.4" rx="42" ry="55" fill="#2a7838" opacity="0.88"/>
    <ellipse cx="919" cy="648" rx="32" ry="40" fill="#388848" opacity="0.75"/>
  <path d="M672 777.6 L806.4 594 L940.8 777.6 Z" fill="#8a4040" opacity="0.85"/>
  <rect x="787.1999999999999" y="518.4" width="4" height="28" fill="#6a3030"/>
  <circle cx="0" cy="0" r="2.5" fill="#ffb8d8" opacity="0.55"/><circle cx="53" cy="31" r="2.5" fill="#ffb8d8" opacity="0.55"/><circle cx="106" cy="62" r="2.5" fill="#ffb8d8" opacity="0.55"/><circle cx="159" cy="93" r="2.5" fill="#ffb8d8" opacity="0.55"/><circle cx="212" cy="124" r="2.5" fill="#ffb8d8" opacity="0.55"/><circle cx="265" cy="155" r="2.5" fill="#ffb8d8" opacity="0.55"/><circle cx="318" cy="186" r="2.5" fill="#ffb8d8" opacity="0.55"/><circle cx="371" cy="217" r="2.5" fill="#ffb8d8" opacity="0.55"/><circle cx="424" cy="248" r="2.5" fill="#ffb8d8" opacity="0.55"/><circle cx="477" cy="279" r="2.5" fill="#ffb8d8" opacity="0.55"/><circle cx="530" cy="310" r="2.5" fill="#ffb8d8" opacity="0.55"/><circle cx="583" cy="341" r="2.5" fill="#ffb8d8" opacity="0.55"/><circle cx="636" cy="372" r="2.5" fill="#ffb8d8" opacity="0.55"/><circle cx="689" cy="403" r="2.5" fill="#ffb8d8" opacity="0.55"/><circle cx="742" cy="434" r="2.5" fill="#ffb8d8" opacity="0.55"/><circle cx="795" cy="465" r="2.5" fill="#ffb8d8" opacity="0.55"/><circle cx="848" cy="496" r="2.5" fill="#ffb8d8" opacity="0.55"/><circle cx="901" cy="527" r="2.5" fill="#ffb8d8" opacity="0.55"/><circle cx="954" cy="558" r="2.5" fill="#ffb8d8" opacity="0.55"/><circle cx="1007" cy="589" r="2.5" fill="#ffb8d8" opacity="0.55"/><circle cx="1060" cy="26" r="2.5" fill="#ffb8d8" opacity="0.55"/><circle cx="1113" cy="57" r="2.5" fill="#ffb8d8" opacity="0.55"/><circle cx="1166" cy="88" r="2.5" fill="#ffb8d8" opacity="0.55"/><circle cx="1219" cy="119" r="2.5" fill="#ffb8d8" opacity="0.55"/><circle cx="1272" cy="150" r="2.5" fill="#ffb8d8" opacity="0.55"/>
  <rect x="0" y="626.4" width="1920" height="453.6" fill="url(#haze)" opacity="0.28"/>
  <ellipse cx="960" cy="626.4" rx="1056" ry="129.6" fill="#fff" opacity="0.098"/>
  <rect width="1920" height="1080" fill="url(#haze)" opacity="0.35"/><circle cx="0.0" cy="15.6" r="0.60" fill="#fff" opacity="0.022"/><circle cx="263.0" cy="97.3" r="0.95" fill="#fff" opacity="0.032"/><circle cx="526.1" cy="179.0" r="1.30" fill="#fff" opacity="0.042"/><circle cx="789.1" cy="260.7" r="0.60" fill="#fff" opacity="0.052"/><circle cx="1052.2" cy="342.4" r="0.95" fill="#fff" opacity="0.022"/><circle cx="1315.2" cy="424.1" r="1.30" fill="#fff" opacity="0.032"/><circle cx="1578.2" cy="505.8" r="0.60" fill="#fff" opacity="0.042"/><circle cx="1841.3" cy="587.5" r="0.95" fill="#fff" opacity="0.052"/><circle cx="184.3" cy="669.2" r="1.30" fill="#fff" opacity="0.022"/><circle cx="447.4" cy="750.9" r="0.60" fill="#fff" opacity="0.032"/><circle cx="710.4" cy="832.6" r="0.95" fill="#fff" opacity="0.042"/><circle cx="973.4" cy="914.3" r="1.30" fill="#fff" opacity="0.052"/><circle cx="1236.5" cy="78.0" r="0.60" fill="#fff" opacity="0.022"/><circle cx="1499.5" cy="159.7" r="0.95" fill="#fff" opacity="0.032"/><circle cx="1762.6" cy="241.4" r="1.30" fill="#fff" opacity="0.042"/><circle cx="105.6" cy="323.1" r="0.60" fill="#fff" opacity="0.052"/><circle cx="368.6" cy="404.8" r="0.95" fill="#fff" opacity="0.022"/><circle cx="631.7" cy="486.5" r="1.30" fill="#fff" opacity="0.032"/><circle cx="894.7" cy="568.2" r="0.60" fill="#fff" opacity="0.042"/><circle cx="1157.8" cy="649.9" r="0.95" fill="#fff" opacity="0.052"/><circle cx="1420.8" cy="731.6" r="1.30" fill="#fff" opacity="0.022"/><circle cx="1683.8" cy="813.3" r="0.60" fill="#fff" opacity="0.032"/><circle cx="26.9" cy="895.0" r="0.95" fill="#fff" opacity="0.042"/><circle cx="289.9" cy="58.8" r="1.30" fill="#fff" opacity="0.052"/><circle cx="553.0" cy="140.5" r="0.60" fill="#fff" opacity="0.022"/><circle cx="816.0" cy="222.2" r="0.95" fill="#fff" opacity="0.032"/><circle cx="1079.0" cy="303.9" r="1.30" fill="#fff" opacity="0.042"/><circle cx="1342.1" cy="385.6" r="0.60" fill="#fff" opacity="0.052"/><circle cx="1605.1" cy="467.3" r="0.95" fill="#fff" opacity="0.022"/><circle cx="1868.2" cy="549.0" r="1.30" fill="#fff" opacity="0.032"/><circle cx="211.2" cy="630.7" r="0.60" fill="#fff" opacity="0.042"/><circle cx="474.2" cy="712.4" r="0.95" fill="#fff" opacity="0.052"/><circle cx="737.3" cy="794.1" r="1.30" fill="#fff" opacity="0.022"/><circle cx="1000.3" cy="875.8" r="0.60" fill="#fff" opacity="0.032"/><circle cx="1263.4" cy="39.5" r="0.95" fill="#fff" opacity="0.042"/><circle cx="1526.4" cy="121.2" r="1.30" fill="#fff" opacity="0.052"/><circle cx="1789.4" cy="202.9" r="0.60" fill="#fff" opacity="0.022"/><circle cx="132.5" cy="284.6" r="0.95" fill="#fff" opacity="0.032"/><circle cx="395.5" cy="366.3" r="1.30" fill="#fff" opacity="0.042"/><circle cx="658.6" cy="448.0" r="0.60" fill="#fff" opacity="0.052"/><circle cx="921.6" cy="529.7" r="0.95" fill="#fff" opacity="0.022"/><circle cx="1184.6" cy="611.4" r="1.30" fill="#fff" opacity="0.032"/><circle cx="1447.7" cy="693.1" r="0.60" fill="#fff" opacity="0.042"/><circle cx="1710.7" cy="774.8" r="0.95" fill="#fff" opacity="0.052"/><circle cx="53.8" cy="856.5" r="1.30" fill="#fff" opacity="0.022"/><circle cx="316.8" cy="20.2" r="0.60" fill="#fff" opacity="0.032"/><circle cx="579.8" cy="101.9" r="0.95" fill="#fff" opacity="0.042"/><circle cx="842.9" cy="183.6" r="1.30" fill="#fff" opacity="0.052"/>
  <circle cx="0.0" cy="26.1" r="0.45" fill="#fff" opacity="0.028" filter="url(#softGlow)"/><circle cx="332.2" cy="203.9" r="0.77" fill="#fff" opacity="0.037" filter="url(#softGlow)"/><circle cx="664.3" cy="381.6" r="1.09" fill="#fff" opacity="0.046" filter="url(#softGlow)"/><circle cx="996.5" cy="559.4" r="1.41" fill="#fff" opacity="0.055" filter="url(#softGlow)"/><circle cx="1328.6" cy="737.1" r="1.73" fill="#fff" opacity="0.064" filter="url(#softGlow)"/><circle cx="1660.8" cy="72.4" r="0.45" fill="#fff" opacity="0.028" filter="url(#softGlow)"/><circle cx="73.0" cy="250.2" r="0.77" fill="#fff" opacity="0.037" filter="url(#softGlow)"/><circle cx="405.1" cy="427.9" r="1.09" fill="#fff" opacity="0.046" filter="url(#softGlow)"/><circle cx="737.3" cy="605.7" r="1.41" fill="#fff" opacity="0.055" filter="url(#softGlow)"/><circle cx="1069.4" cy="783.4" r="1.73" fill="#fff" opacity="0.064" filter="url(#softGlow)"/><circle cx="1401.6" cy="118.8" r="0.45" fill="#fff" opacity="0.028" filter="url(#softGlow)"/><circle cx="1733.8" cy="296.5" r="0.77" fill="#fff" opacity="0.037" filter="url(#softGlow)"/><circle cx="145.9" cy="474.3" r="1.09" fill="#fff" opacity="0.046" filter="url(#softGlow)"/><circle cx="478.1" cy="652.0" r="1.41" fill="#fff" opacity="0.055" filter="url(#softGlow)"/><circle cx="810.2" cy="829.8" r="1.73" fill="#fff" opacity="0.064" filter="url(#softGlow)"/><circle cx="1142.4" cy="165.1" r="0.45" fill="#fff" opacity="0.028" filter="url(#softGlow)"/><circle cx="1474.6" cy="342.9" r="0.77" fill="#fff" opacity="0.037" filter="url(#softGlow)"/><circle cx="1806.7" cy="520.6" r="1.09" fill="#fff" opacity="0.046" filter="url(#softGlow)"/><circle cx="218.9" cy="698.3" r="1.41" fill="#fff" opacity="0.055" filter="url(#softGlow)"/><circle cx="551.0" cy="33.7" r="1.73" fill="#fff" opacity="0.064" filter="url(#softGlow)"/><circle cx="883.2" cy="211.4" r="0.45" fill="#fff" opacity="0.028" filter="url(#softGlow)"/><circle cx="1215.4" cy="389.2" r="0.77" fill="#fff" opacity="0.037" filter="url(#softGlow)"/><circle cx="1547.5" cy="566.9" r="1.09" fill="#fff" opacity="0.046" filter="url(#softGlow)"/><circle cx="1879.7" cy="744.7" r="1.41" fill="#fff" opacity="0.055" filter="url(#softGlow)"/><circle cx="291.8" cy="80.0" r="1.73" fill="#fff" opacity="0.064" filter="url(#softGlow)"/><circle cx="624.0" cy="257.8" r="0.45" fill="#fff" opacity="0.028" filter="url(#softGlow)"/><circle cx="956.2" cy="435.5" r="0.77" fill="#fff" opacity="0.037" filter="url(#softGlow)"/><circle cx="1288.3" cy="613.3" r="1.09" fill="#fff" opacity="0.046" filter="url(#softGlow)"/><circle cx="1620.5" cy="791.0" r="1.41" fill="#fff" opacity="0.055" filter="url(#softGlow)"/><circle cx="32.6" cy="126.4" r="1.73" fill="#fff" opacity="0.064" filter="url(#softGlow)"/><circle cx="364.8" cy="304.1" r="0.45" fill="#fff" opacity="0.028" filter="url(#softGlow)"/><circle cx="697.0" cy="481.9" r="0.77" fill="#fff" opacity="0.037" filter="url(#softGlow)"/><circle cx="1029.1" cy="659.6" r="1.09" fill="#fff" opacity="0.046" filter="url(#softGlow)"/><circle cx="1361.3" cy="837.3" r="1.41" fill="#fff" opacity="0.055" filter="url(#softGlow)"/><circle cx="1693.4" cy="172.7" r="1.73" fill="#fff" opacity="0.064" filter="url(#softGlow)"/><circle cx="105.6" cy="350.4" r="0.45" fill="#fff" opacity="0.028" filter="url(#softGlow)"/><circle cx="437.8" cy="528.2" r="0.77" fill="#fff" opacity="0.037" filter="url(#softGlow)"/><circle cx="769.9" cy="705.9" r="1.09" fill="#fff" opacity="0.046" filter="url(#softGlow)"/><circle cx="1102.1" cy="41.3" r="1.41" fill="#fff" opacity="0.055" filter="url(#softGlow)"/><circle cx="1434.2" cy="219.0" r="1.73" fill="#fff" opacity="0.064" filter="url(#softGlow)"/><circle cx="1766.4" cy="396.8" r="0.45" fill="#fff" opacity="0.028" filter="url(#softGlow)"/><circle cx="178.6" cy="574.5" r="0.77" fill="#fff" opacity="0.037" filter="url(#softGlow)"/><circle cx="510.7" cy="752.3" r="1.09" fill="#fff" opacity="0.046" filter="url(#softGlow)"/><circle cx="842.9" cy="87.6" r="1.41" fill="#fff" opacity="0.055" filter="url(#softGlow)"/><circle cx="1175.0" cy="265.4" r="1.73" fill="#fff" opacity="0.064" filter="url(#softGlow)"/><circle cx="1507.2" cy="443.1" r="0.45" fill="#fff" opacity="0.028" filter="url(#softGlow)"/><circle cx="1839.4" cy="620.8" r="0.77" fill="#fff" opacity="0.037" filter="url(#softGlow)"/><circle cx="251.5" cy="798.6" r="1.09" fill="#fff" opacity="0.046" filter="url(#softGlow)"/><circle cx="583.7" cy="133.9" r="1.41" fill="#fff" opacity="0.055" filter="url(#softGlow)"/><circle cx="915.8" cy="311.7" r="1.73" fill="#fff" opacity="0.064" filter="url(#softGlow)"/><circle cx="1248.0" cy="489.4" r="0.45" fill="#fff" opacity="0.028" filter="url(#softGlow)"/><circle cx="1580.2" cy="667.2" r="0.77" fill="#fff" opacity="0.037" filter="url(#softGlow)"/><circle cx="1912.3" cy="2.5" r="1.09" fill="#fff" opacity="0.046" filter="url(#softGlow)"/><circle cx="324.5" cy="180.3" r="1.41" fill="#fff" opacity="0.055" filter="url(#softGlow)"/><circle cx="656.6" cy="358.0" r="1.73" fill="#fff" opacity="0.064" filter="url(#softGlow)"/><circle cx="988.8" cy="535.8" r="0.45" fill="#fff" opacity="0.028" filter="url(#softGlow)"/><circle cx="1321.0" cy="713.5" r="0.77" fill="#fff" opacity="0.037" filter="url(#softGlow)"/><circle cx="1653.1" cy="48.9" r="1.09" fill="#fff" opacity="0.046" filter="url(#softGlow)"/><line x1="153.6" y1="54" x2="268.8" y2="237.6" stroke="#fff" stroke-opacity="0.04" stroke-width="2" filter="url(#softGlow)"/><line x1="422.4" y1="54" x2="537.6" y2="237.6" stroke="#fff" stroke-opacity="0.04" stroke-width="2" filter="url(#softGlow)"/><line x1="691.2" y1="54" x2="806.4" y2="237.6" stroke="#fff" stroke-opacity="0.04" stroke-width="2" filter="url(#softGlow)"/><line x1="960.0" y1="54" x2="1075.2" y2="237.6" stroke="#fff" stroke-opacity="0.04" stroke-width="2" filter="url(#softGlow)"/><line x1="1228.8" y1="54" x2="1344.0" y2="237.6" stroke="#fff" stroke-opacity="0.04" stroke-width="2" filter="url(#softGlow)"/><line x1="1497.6" y1="54" x2="1612.8" y2="237.6" stroke="#fff" stroke-opacity="0.04" stroke-width="2" filter="url(#softGlow)"/><ellipse cx="1497.6000000000001" cy="129.6" rx="345.59999999999997" ry="64.8" fill="#fff8e8" opacity="0.065" filter="url(#softGlow)"/>
  <ellipse cx="422.4" cy="216" rx="192" ry="43.2" fill="#c8e8ff" opacity="0.055" filter="url(#softGlow)"/>
  <ellipse cx="960" cy="86.4" rx="422.4" ry="43.2" fill="#fff" opacity="0.035" filter="url(#softGlow)"/>
  <ellipse cx="1190.4" cy="594" rx="537.6" ry="151.20000000000002" fill="#a8c8ff" opacity="0.04" filter="url(#softGlow)"/>
  <rect width="1920" height="1080" fill="url(#stageGlow)"/>
  <rect width="1920" height="1080" fill="url(#rimLight)" opacity="0.85"/>
  <rect width="1920" height="1080" fill="url(#haze)" opacity="0.14"/>
  <rect width="1920" height="1080" fill="url(#filmGrade)" opacity="1"/>
  <rect width="1920" height="1080" fill="url(#vignette)" opacity="0.38"/>
  <rect x="0" y="972" width="1920" height="108" fill="#000" opacity="0.14"/>
  <rect width="1920" height="1080" fill="#fff" opacity="0.012" filter="url(#filmGrain)"/>
</svg>