<?xml version="1.0" encoding="UTF-8"?>
<svg xmlns="http://www.w3.org/2000/svg" viewBox="0 0 960 540" width="960" height="540">
<defs><linearGradient id="sky" x1="0" y1="0" x2="0" y2="1"><stop offset="0%" stop-color="#87ceeb"/><stop offset="100%" stop-color="#5a9888"/></linearGradient></defs>
    <rect width="960" height="540" fill="url(#sky)"/>
    <ellipse cx="480" cy="388.8" rx="672" ry="189" fill="#4a8a52"/>
    <ellipse cx="30" cy="367.20000000000005" rx="38" ry="48" fill="#2d6a38"/><rect x="24" y="367.20000000000005" width="12" height="60" fill="#4a3828"/><ellipse cx="105" cy="367.20000000000005" rx="38" ry="48" fill="#2d6a38"/><rect x="99" y="367.20000000000005" width="12" height="85" fill="#4a3828"/><ellipse cx="180" cy="367.20000000000005" rx="38" ry="48" fill="#2d6a38"/><rect x="174" y="367.20000000000005" width="12" height="110" fill="#4a3828"/><ellipse cx="255" cy="367.20000000000005" rx="38" ry="48" fill="#2d6a38"/><rect x="249" y="367.20000000000005" width="12" height="135" fill="#4a3828"/><ellipse cx="330" cy="367.20000000000005" rx="38" ry="48" fill="#2d6a38"/><rect x="324" y="367.20000000000005" width="12" height="60" fill="#4a3828"/><ellipse cx="405" cy="367.20000000000005" rx="38" ry="48" fill="#2d6a38"/><rect x="399" y="367.20000000000005" width="12" height="85" fill="#4a3828"/><ellipse cx="480" cy="367.20000000000005" rx="38" ry="48" fill="#2d6a38"/><rect x="474" y="367.20000000000005" width="12" height="110" fill="#4a3828"/><ellipse cx="555" cy="367.20000000000005" rx="38" ry="48" fill="#2d6a38"/><rect x="549" y="367.20000000000005" width="12" height="135" fill="#4a3828"/><ellipse cx="630" cy="367.20000000000005" rx="38" ry="48" fill="#2d6a38"/><rect x="624" y="367.20000000000005" width="12" height="60" fill="#4a3828"/>
</svg>