<?xml version="1.0" encoding="UTF-8"?>
<svg xmlns="http://www.w3.org/2000/svg" viewBox="0 0 960 540" width="960" height="540">
<defs>
  <linearGradient id="skyTop" x1="0" y1="0" x2="0" y2="1">
    <stop offset="0%" stop-color="#1a1048"/>
    <stop offset="35%" stop-color="#3d2878"/>
    <stop offset="68%" stop-color="#284868"/>
    <stop offset="100%" stop-color="#0c1420"/>
  </linearGradient>
  <linearGradient id="skyDay" x1="0" y1="0" x2="0" y2="1">
    <stop offset="0%" stop-color="#7ec8ff"/>
    <stop offset="45%" stop-color="#a8d8f8"/>
    <stop offset="78%" stop-color="#e8c878"/>
    <stop offset="100%" stop-color="#88b868"/>
  </linearGradient>
  <linearGradient id="skySunset" x1="0" y1="0" x2="0" y2="1">
    <stop offset="0%" stop-color="#ff6b4a"/>
    <stop offset="28%" stop-color="#d84888"/>
    <stop offset="55%" stop-color="#683878"/>
    <stop offset="100%" stop-color="#120818"/>
  </linearGradient>
  <linearGradient id="haze" x1="0" y1="0.4" x2="0" y2="1">
    <stop offset="0%" stop-color="#fff" stop-opacity="0"/>
    <stop offset="100%" stop-color="#c8d8f0" stop-opacity="0.22"/>
  </linearGradient>
  <filter id="softGlow" x="-40%" y="-40%" width="180%" height="180%">
    <feGaussianBlur stdDeviation="4" result="b"/>
    <feMerge><feMergeNode in="b"/><feMergeNode in="SourceGraphic"/></feMerge>
  </filter>
  <filter id="neonGlow" x="-60%" y="-60%" width="220%" height="220%">
    <feGaussianBlur stdDeviation="6" result="b"/>
    <feMerge><feMergeNode in="b"/><feMergeNode in="b"/><feMergeNode in="SourceGraphic"/></feMerge>
  </filter>
  <filter id="paintSoft" x="-2%" y="-2%" width="104%" height="104%">
    <feGaussianBlur stdDeviation="0.6"/>
  </filter>
  <radialGradient id="sunDisc" cx="0.5" cy="0.5" r="0.5">
    <stop offset="0%" stop-color="#fff8e8"/>
    <stop offset="55%" stop-color="#ffd080"/>
    <stop offset="100%" stop-color="#ff904000"/>
  </radialGradient>
  <radialGradient id="moonGlow" cx="0.5" cy="0.5" r="0.5">
    <stop offset="0%" stop-color="#fffef8"/>
    <stop offset="40%" stop-color="#e8e0f0"/>
    <stop offset="100%" stop-color="#e8e0f000"/>
  </radialGradient>
  <linearGradient id="wallWarm" x1="0" y1="0" x2="1" y2="1">
    <stop offset="0%" stop-color="#fff0e4"/>
    <stop offset="45%" stop-color="#e8c8b0"/>
    <stop offset="100%" stop-color="#c8a088"/>
  </linearGradient>
  <linearGradient id="wallCool" x1="0" y1="0" x2="0" y2="1">
    <stop offset="0%" stop-color="#eef2f8"/>
    <stop offset="100%" stop-color="#b8c0d0"/>
  </linearGradient>
  <linearGradient id="floorWood" x1="0" y1="0.6" x2="0" y2="1">
    <stop offset="0%" stop-color="#a88870"/>
    <stop offset="100%" stop-color="#685040"/>
  </linearGradient>
  <radialGradient id="lampGlow" cx="0.5" cy="0.5" r="0.5">
    <stop offset="0%" stop-color="#fff8e0"/>
    <stop offset="70%" stop-color="#ffd898" stop-opacity="0.35"/>
    <stop offset="100%" stop-color="#ffd898" stop-opacity="0"/>
  </radialGradient>
  <radialGradient id="vignette" cx="0.5" cy="0.42" r="0.78">
    <stop offset="52%" stop-color="#000" stop-opacity="0"/>
    <stop offset="100%" stop-color="#030508" stop-opacity="0.48"/>
  </radialGradient>
</defs>
  <rect width="960" height="540" fill="url(#wallCool)"/>
  <ellipse cx="480" cy="297" rx="403.2" ry="189" fill="#f8f8fc"/>
  <ellipse cx="480" cy="313.2" rx="364.8" ry="151.20000000000002" fill="#ffffff"/>
  <polygon points="0,334.8 0,540 960,540 960,334.8 748.8000000000001,367.20000000000005 211.2,367.20000000000005" fill="#9098a8" opacity="0.85"/>
  <rect x="76.8" y="64.8" width="90" height="140" fill="#fff" opacity="0.95" filter="url(#softGlow)"/>
  <rect x="787.1999999999999" y="64.8" width="90" height="140" fill="#fff" opacity="0.95" filter="url(#softGlow)"/>
  <rect x="336" y="27" width="120" height="80" fill="#fff" opacity="0.7" filter="url(#softGlow)"/>
  <circle cx="480" cy="189" r="8" fill="#888"/>
  <line x1="480" y1="189" x2="480" y2="297" stroke="#666" stroke-width="3"/>
  <rect x="403.2" y="388.8" width="120" height="50" rx="8" fill="#686878" opacity="0.5"/><circle cx="0.0" cy="8.1" r="0.80" fill="#fff" opacity="0.035"/><circle cx="131.5" cy="50.4" r="1.25" fill="#fff" opacity="0.047"/><circle cx="263.0" cy="92.7" r="1.70" fill="#fff" opacity="0.059"/><circle cx="394.6" cy="135.0" r="2.15" fill="#fff" opacity="0.071"/><circle cx="526.1" cy="177.2" r="0.80" fill="#fff" opacity="0.083"/><circle cx="657.6" cy="219.5" r="1.25" fill="#fff" opacity="0.095"/><circle cx="789.1" cy="261.8" r="1.70" fill="#fff" opacity="0.035"/><circle cx="920.6" cy="304.1" r="2.15" fill="#fff" opacity="0.047"/><circle cx="92.2" cy="346.4" r="0.80" fill="#fff" opacity="0.059"/><circle cx="223.7" cy="388.7" r="1.25" fill="#fff" opacity="0.071"/><circle cx="355.2" cy="431.0" r="1.70" fill="#fff" opacity="0.083"/><circle cx="486.7" cy="473.3" r="2.15" fill="#fff" opacity="0.095"/><circle cx="618.2" cy="40.4" r="0.80" fill="#fff" opacity="0.035"/><circle cx="749.8" cy="82.7" r="1.25" fill="#fff" opacity="0.047"/><circle cx="881.3" cy="125.0" r="1.70" fill="#fff" opacity="0.059"/><circle cx="52.8" cy="167.3" r="2.15" fill="#fff" opacity="0.071"/><circle cx="184.3" cy="209.6" r="0.80" fill="#fff" opacity="0.083"/><circle cx="315.8" cy="251.9" r="1.25" fill="#fff" opacity="0.095"/><circle cx="447.4" cy="294.1" r="1.70" fill="#fff" opacity="0.035"/><circle cx="578.9" cy="336.4" r="2.15" fill="#fff" opacity="0.047"/><circle cx="710.4" cy="378.7" r="0.80" fill="#fff" opacity="0.059"/><circle cx="841.9" cy="421.0" r="1.25" fill="#fff" opacity="0.071"/><circle cx="13.4" cy="463.3" r="1.70" fill="#fff" opacity="0.083"/><circle cx="145.0" cy="30.4" r="2.15" fill="#fff" opacity="0.095"/><circle cx="276.5" cy="72.7" r="0.80" fill="#fff" opacity="0.035"/><circle cx="408.0" cy="115.0" r="1.25" fill="#fff" opacity="0.047"/><circle cx="539.5" cy="157.3" r="1.70" fill="#fff" opacity="0.059"/><circle cx="671.0" cy="199.6" r="2.15" fill="#fff" opacity="0.071"/><circle cx="802.6" cy="241.9" r="0.80" fill="#fff" opacity="0.083"/><circle cx="934.1" cy="284.2" r="1.25" fill="#fff" opacity="0.095"/><circle cx="105.6" cy="326.5" r="1.70" fill="#fff" opacity="0.035"/><circle cx="237.1" cy="368.8" r="2.15" fill="#fff" opacity="0.047"/>
  <rect width="960" height="540" fill="url(#haze)" opacity="0.18"/>
  <rect width="960" height="540" fill="url(#vignette)"/>
  <rect x="0" y="475.2" width="960" height="64.8" fill="#000" opacity="0.22"/>
</svg>