<?xml version="1.0" encoding="UTF-8"?>
<svg xmlns="http://www.w3.org/2000/svg" viewBox="0 0 960 540" width="960" height="540">
<defs>
  <linearGradient id="skyTop" x1="0" y1="0" x2="0" y2="1">
    <stop offset="0%" stop-color="#121828"/>
    <stop offset="32%" stop-color="#243050"/>
    <stop offset="58%" stop-color="#2a3848"/>
    <stop offset="100%" stop-color="#0a0e14"/>
  </linearGradient>
  <linearGradient id="skyDay" x1="0" y1="0" x2="0" y2="1">
    <stop offset="0%" stop-color="#6eb4e0"/>
    <stop offset="38%" stop-color="#a8cce8"/>
    <stop offset="70%" stop-color="#d8c098"/>
    <stop offset="100%" stop-color="#6a8868"/>
  </linearGradient>
  <linearGradient id="skySunset" x1="0" y1="0" x2="0" y2="1">
    <stop offset="0%" stop-color="#ff6b4a"/>
    <stop offset="28%" stop-color="#d84888"/>
    <stop offset="55%" stop-color="#683878"/>
    <stop offset="100%" stop-color="#120818"/>
  </linearGradient>
  <linearGradient id="haze" x1="0" y1="0.4" x2="0" y2="1">
    <stop offset="0%" stop-color="#fff" stop-opacity="0"/>
    <stop offset="100%" stop-color="#c8d8f0" stop-opacity="0.22"/>
  </linearGradient>
  <filter id="softGlow" x="-40%" y="-40%" width="180%" height="180%">
    <feGaussianBlur stdDeviation="4" result="b"/>
    <feMerge><feMergeNode in="b"/><feMergeNode in="SourceGraphic"/></feMerge>
  </filter>
  <filter id="neonGlow" x="-60%" y="-60%" width="220%" height="220%">
    <feGaussianBlur stdDeviation="6" result="b"/>
    <feMerge><feMergeNode in="b"/><feMergeNode in="b"/><feMergeNode in="SourceGraphic"/></feMerge>
  </filter>
  <filter id="paintSoft" x="-2%" y="-2%" width="104%" height="104%">
    <feGaussianBlur stdDeviation="0.6"/>
  </filter>
  <radialGradient id="sunDisc" cx="0.5" cy="0.5" r="0.5">
    <stop offset="0%" stop-color="#fff8e8"/>
    <stop offset="55%" stop-color="#ffd080"/>
    <stop offset="100%" stop-color="#ff904000"/>
  </radialGradient>
  <radialGradient id="moonGlow" cx="0.5" cy="0.5" r="0.5">
    <stop offset="0%" stop-color="#fffef8"/>
    <stop offset="40%" stop-color="#e8e0f0"/>
    <stop offset="100%" stop-color="#e8e0f000"/>
  </radialGradient>
  <linearGradient id="wallWarm" x1="0" y1="0" x2="1" y2="1">
    <stop offset="0%" stop-color="#fff0e4"/>
    <stop offset="45%" stop-color="#e8c8b0"/>
    <stop offset="100%" stop-color="#c8a088"/>
  </linearGradient>
  <linearGradient id="wallCool" x1="0" y1="0" x2="0" y2="1">
    <stop offset="0%" stop-color="#eef2f8"/>
    <stop offset="100%" stop-color="#b8c0d0"/>
  </linearGradient>
  <linearGradient id="floorWood" x1="0" y1="0.6" x2="0" y2="1">
    <stop offset="0%" stop-color="#a88870"/>
    <stop offset="100%" stop-color="#685040"/>
  </linearGradient>
  <radialGradient id="lampGlow" cx="0.5" cy="0.5" r="0.5">
    <stop offset="0%" stop-color="#fff8e0"/>
    <stop offset="70%" stop-color="#ffd898" stop-opacity="0.35"/>
    <stop offset="100%" stop-color="#ffd898" stop-opacity="0"/>
  </radialGradient>
  <radialGradient id="vignette" cx="0.5" cy="0.42" r="0.78">
    <stop offset="55%" stop-color="#000" stop-opacity="0"/>
    <stop offset="100%" stop-color="#030508" stop-opacity="0.38"/>
  </radialGradient>
  <linearGradient id="filmGrade" x1="0" y1="0" x2="0" y2="1">
    <stop offset="0%" stop-color="#283858" stop-opacity="0.14"/>
    <stop offset="42%" stop-color="#000" stop-opacity="0"/>
    <stop offset="100%" stop-color="#000" stop-opacity="0.32"/>
  </linearGradient>
  <radialGradient id="stageGlow" cx="0.5" cy="0.62" r="0.55">
    <stop offset="0%" stop-color="#fff" stop-opacity="0.06"/>
    <stop offset="100%" stop-color="#fff" stop-opacity="0"/>
  </radialGradient>
</defs>
  <rect width="960" height="540" fill="url(#skySunset)"/>
  <polygon points="691.1999999999999,43.2 1299.9135179251016,-178.99777923113248 1308.3121532859423,-154.4779964153514" fill="#ffd0a0" opacity="0.04"/><polygon points="691.1999999999999,43.2 1315.723540845097,-129.64197097436255 1322.1358239634828,-104.52943525080205" fill="#ffd0a0" opacity="0.04"/><polygon points="691.1999999999999,43.2 1327.5387443559912,-79.18056394477235 1331.9236585025553,-53.635909842892275" fill="#ffd0a0" opacity="0.04"/><polygon points="691.1999999999999,43.2 1335.2835514759395,-27.936338942489257 1337.613048164125,-2.1229650747212148" fill="#ffd0a0" opacity="0.04"/><polygon points="691.1999999999999,43.2 1338.9084218693438,23.762915868782834 1339.1676002699992,49.67989200054002" fill="#ffd0a0" opacity="0.04"/><polygon points="691.1999999999999,43.2 1338.390168735938,75.58650168739959 1336.577370991772,101.44129988031119" fill="#ffd0a0" opacity="0.04"/><polygon points="691.1999999999999,43.2 1333.7321071271826,127.20292441756226 1329.8589289573952,152.83016219541344" fill="#ffd0a0" opacity="0.04"/><polygon points="691.1999999999999,43.2 1324.964032741248,178.2820151002726 1319.0552492684978,203.51776559693093" fill="#ffd0a0" opacity="0.04"/><polygon points="691.1999999999999,43.2 1312.1420313322278,228.4970418679335 1304.2354386063948,253.1798823998747" fill="#ffd0a0" opacity="0.04"/>
  <circle cx="480" cy="205.2" r="72" fill="url(#sunDisc)" filter="url(#softGlow)"/>
  <ellipse cx="0" cy="43.2" rx="144" ry="33.6" fill="#fff" opacity="0.06"/><ellipse cx="60" cy="35.2" rx="108" ry="26.4" fill="#fff" opacity="0.05"/><ellipse cx="489.6" cy="75.60000000000001" rx="192" ry="44.800000000000004" fill="#fff" opacity="0.09"/><ellipse cx="549.6" cy="67.60000000000001" rx="144" ry="35.2" fill="#fff" opacity="0.05"/><ellipse cx="211.2" cy="108" rx="240" ry="56" fill="#fff" opacity="0.12"/><ellipse cx="271.2" cy="100" rx="180" ry="44" fill="#fff" opacity="0.05"/><ellipse cx="700.8" cy="140.4" rx="144" ry="33.6" fill="#fff" opacity="0.06"/><ellipse cx="760.8" cy="132.4" rx="108" ry="26.4" fill="#fff" opacity="0.05"/><ellipse cx="422.4" cy="43.2" rx="192" ry="44.800000000000004" fill="#fff" opacity="0.09"/><ellipse cx="482.4" cy="35.2" rx="144" ry="35.2" fill="#fff" opacity="0.05"/><ellipse cx="144" cy="75.60000000000001" rx="240" ry="56" fill="#fff" opacity="0.12"/><ellipse cx="204" cy="67.60000000000001" rx="180" ry="44" fill="#fff" opacity="0.05"/><ellipse cx="633.6" cy="108" rx="144" ry="33.6" fill="#fff" opacity="0.06"/><ellipse cx="693.6" cy="100" rx="108" ry="26.4" fill="#fff" opacity="0.05"/><ellipse cx="355.2" cy="140.4" rx="192" ry="44.800000000000004" fill="#fff" opacity="0.09"/><ellipse cx="415.2" cy="132.4" rx="144" ry="35.2" fill="#fff" opacity="0.05"/><ellipse cx="76.8" cy="43.2" rx="240" ry="56" fill="#fff" opacity="0.12"/><ellipse cx="136.8" cy="35.2" rx="180" ry="44" fill="#fff" opacity="0.05"/><ellipse cx="566.4" cy="75.60000000000001" rx="144" ry="33.6" fill="#fff" opacity="0.06"/><ellipse cx="626.4" cy="67.60000000000001" rx="108" ry="26.4" fill="#fff" opacity="0.05"/><ellipse cx="288" cy="108" rx="192" ry="44.800000000000004" fill="#fff" opacity="0.09"/><ellipse cx="348" cy="100" rx="144" ry="35.2" fill="#fff" opacity="0.05"/><ellipse cx="9.6" cy="140.4" rx="240" ry="56" fill="#fff" opacity="0.12"/><ellipse cx="69.6" cy="132.4" rx="180" ry="44" fill="#fff" opacity="0.05"/>
  <polygon points="0,388.8 211.2,205.2 403.2,388.8" fill="#384858" opacity="0.85"/>
  <polygon points="268.8,388.8 499.20000000000005,172.8 748.8000000000001,388.8" fill="#506878" opacity="0.9"/>
  <polygon points="528,388.8 748.8000000000001,216 960,388.8" fill="#3a4858"/>
  <polygon points="460.79999999999995,205.2 499.20000000000005,172.8 537.6,205.2" fill="#fff" opacity="0.75"/>
  <circle cx="0" cy="81" r="8" fill="#ffb8e8" opacity="0.12" filter="url(#softGlow)"/><circle cx="548" cy="146" r="14" fill="#88d8ff" opacity="0.12" filter="url(#softGlow)"/><circle cx="136" cy="211" r="20" fill="#ffe8a8" opacity="0.12" filter="url(#softGlow)"/><circle cx="684" cy="276" r="26" fill="#ffb8e8" opacity="0.12" filter="url(#softGlow)"/><circle cx="273" cy="341" r="32" fill="#88d8ff" opacity="0.12" filter="url(#softGlow)"/><circle cx="821" cy="109" r="38" fill="#ffe8a8" opacity="0.12" filter="url(#softGlow)"/><circle cx="409" cy="174" r="44" fill="#ffb8e8" opacity="0.12" filter="url(#softGlow)"/><circle cx="957" cy="239" r="8" fill="#88d8ff" opacity="0.12" filter="url(#softGlow)"/><circle cx="545" cy="304" r="14" fill="#ffe8a8" opacity="0.12" filter="url(#softGlow)"/><circle cx="133" cy="369" r="20" fill="#ffb8e8" opacity="0.12" filter="url(#softGlow)"/><circle cx="682" cy="137" r="26" fill="#88d8ff" opacity="0.12" filter="url(#softGlow)"/><circle cx="270" cy="202" r="32" fill="#ffe8a8" opacity="0.12" filter="url(#softGlow)"/><circle cx="818" cy="268" r="38" fill="#ffb8e8" opacity="0.12" filter="url(#softGlow)"/><circle cx="406" cy="333" r="44" fill="#88d8ff" opacity="0.12" filter="url(#softGlow)"/><circle cx="954" cy="101" r="8" fill="#ffe8a8" opacity="0.12" filter="url(#softGlow)"/><circle cx="542" cy="166" r="14" fill="#ffb8e8" opacity="0.12" filter="url(#softGlow)"/><circle cx="131" cy="231" r="20" fill="#88d8ff" opacity="0.12" filter="url(#softGlow)"/><circle cx="679" cy="296" r="26" fill="#ffe8a8" opacity="0.12" filter="url(#softGlow)"/><circle cx="267" cy="361" r="32" fill="#ffb8e8" opacity="0.12" filter="url(#softGlow)"/><circle cx="815" cy="129" r="38" fill="#88d8ff" opacity="0.12" filter="url(#softGlow)"/><circle cx="403" cy="194" r="44" fill="#ffe8a8" opacity="0.12" filter="url(#softGlow)"/><circle cx="951" cy="259" r="8" fill="#ffb8e8" opacity="0.12" filter="url(#softGlow)"/><circle cx="540" cy="324" r="14" fill="#88d8ff" opacity="0.12" filter="url(#softGlow)"/><circle cx="128" cy="92" r="20" fill="#ffe8a8" opacity="0.12" filter="url(#softGlow)"/><circle cx="676" cy="157" r="26" fill="#ffb8e8" opacity="0.12" filter="url(#softGlow)"/><circle cx="264" cy="222" r="32" fill="#88d8ff" opacity="0.12" filter="url(#softGlow)"/><circle cx="812" cy="287" r="38" fill="#ffe8a8" opacity="0.12" filter="url(#softGlow)"/><circle cx="400" cy="352" r="44" fill="#ffb8e8" opacity="0.12" filter="url(#softGlow)"/>
  <rect x="0" y="388.8" width="960" height="151.20000000000002" fill="#0a0810"/><circle cx="0.0" cy="7.8" r="0.60" fill="#fff" opacity="0.022"/><circle cx="131.5" cy="48.7" r="0.95" fill="#fff" opacity="0.032"/><circle cx="263.0" cy="89.5" r="1.30" fill="#fff" opacity="0.042"/><circle cx="394.6" cy="130.4" r="0.60" fill="#fff" opacity="0.052"/><circle cx="526.1" cy="171.2" r="0.95" fill="#fff" opacity="0.022"/><circle cx="657.6" cy="212.1" r="1.30" fill="#fff" opacity="0.032"/><circle cx="789.1" cy="252.9" r="0.60" fill="#fff" opacity="0.042"/><circle cx="920.6" cy="293.8" r="0.95" fill="#fff" opacity="0.052"/><circle cx="92.2" cy="334.6" r="1.30" fill="#fff" opacity="0.022"/><circle cx="223.7" cy="375.5" r="0.60" fill="#fff" opacity="0.032"/><circle cx="355.2" cy="416.3" r="0.95" fill="#fff" opacity="0.042"/><circle cx="486.7" cy="457.2" r="1.30" fill="#fff" opacity="0.052"/><circle cx="618.2" cy="39.0" r="0.60" fill="#fff" opacity="0.022"/><circle cx="749.8" cy="79.9" r="0.95" fill="#fff" opacity="0.032"/><circle cx="881.3" cy="120.7" r="1.30" fill="#fff" opacity="0.042"/><circle cx="52.8" cy="161.6" r="0.60" fill="#fff" opacity="0.052"/><circle cx="184.3" cy="202.4" r="0.95" fill="#fff" opacity="0.022"/><circle cx="315.8" cy="243.3" r="1.30" fill="#fff" opacity="0.032"/><circle cx="447.4" cy="284.1" r="0.60" fill="#fff" opacity="0.042"/><circle cx="578.9" cy="325.0" r="0.95" fill="#fff" opacity="0.052"/><circle cx="710.4" cy="365.8" r="1.30" fill="#fff" opacity="0.022"/><circle cx="841.9" cy="406.7" r="0.60" fill="#fff" opacity="0.032"/><circle cx="13.4" cy="447.5" r="0.95" fill="#fff" opacity="0.042"/><circle cx="145.0" cy="29.4" r="1.30" fill="#fff" opacity="0.052"/><circle cx="276.5" cy="70.2" r="0.60" fill="#fff" opacity="0.022"/><circle cx="408.0" cy="111.1" r="0.95" fill="#fff" opacity="0.032"/><circle cx="539.5" cy="151.9" r="1.30" fill="#fff" opacity="0.042"/><circle cx="671.0" cy="192.8" r="0.60" fill="#fff" opacity="0.052"/>
  <circle cx="0.0" cy="12.1" r="0.50" fill="#fff" opacity="0.025" filter="url(#softGlow)"/><circle cx="166.1" cy="94.1" r="0.78" fill="#fff" opacity="0.033" filter="url(#softGlow)"/><circle cx="332.2" cy="176.1" r="1.06" fill="#fff" opacity="0.041" filter="url(#softGlow)"/><circle cx="498.2" cy="258.2" r="1.34" fill="#fff" opacity="0.049" filter="url(#softGlow)"/><circle cx="664.3" cy="340.2" r="0.50" fill="#fff" opacity="0.057" filter="url(#softGlow)"/><circle cx="830.4" cy="33.4" r="0.78" fill="#fff" opacity="0.025" filter="url(#softGlow)"/><circle cx="36.5" cy="115.5" r="1.06" fill="#fff" opacity="0.033" filter="url(#softGlow)"/><circle cx="202.6" cy="197.5" r="1.34" fill="#fff" opacity="0.041" filter="url(#softGlow)"/><circle cx="368.6" cy="279.5" r="0.50" fill="#fff" opacity="0.049" filter="url(#softGlow)"/><circle cx="534.7" cy="361.6" r="0.78" fill="#fff" opacity="0.057" filter="url(#softGlow)"/><circle cx="700.8" cy="54.8" r="1.06" fill="#fff" opacity="0.025" filter="url(#softGlow)"/><circle cx="866.9" cy="136.9" r="1.34" fill="#fff" opacity="0.033" filter="url(#softGlow)"/><circle cx="73.0" cy="218.9" r="0.50" fill="#fff" opacity="0.041" filter="url(#softGlow)"/><circle cx="239.0" cy="300.9" r="0.78" fill="#fff" opacity="0.049" filter="url(#softGlow)"/><circle cx="405.1" cy="383.0" r="1.06" fill="#fff" opacity="0.057" filter="url(#softGlow)"/><circle cx="571.2" cy="76.2" r="1.34" fill="#fff" opacity="0.025" filter="url(#softGlow)"/><circle cx="737.3" cy="158.2" r="0.50" fill="#fff" opacity="0.033" filter="url(#softGlow)"/><circle cx="903.4" cy="240.3" r="0.78" fill="#fff" opacity="0.041" filter="url(#softGlow)"/><circle cx="109.4" cy="322.3" r="1.06" fill="#fff" opacity="0.049" filter="url(#softGlow)"/><circle cx="275.5" cy="15.6" r="1.34" fill="#fff" opacity="0.057" filter="url(#softGlow)"/><circle cx="441.6" cy="97.6" r="0.50" fill="#fff" opacity="0.025" filter="url(#softGlow)"/><circle cx="607.7" cy="179.6" r="0.78" fill="#fff" opacity="0.033" filter="url(#softGlow)"/><ellipse cx="748.8000000000001" cy="64.8" rx="172.79999999999998" ry="32.4" fill="#fff8e8" opacity="0.045" filter="url(#softGlow)"/>
  <ellipse cx="211.2" cy="108" rx="96" ry="21.6" fill="#c8e8ff" opacity="0.035" filter="url(#softGlow)"/>
  <rect width="960" height="540" fill="url(#stageGlow)"/>
  <rect width="960" height="540" fill="url(#haze)" opacity="0.14"/>
  <rect width="960" height="540" fill="url(#filmGrade)"/>
  <rect width="960" height="540" fill="url(#vignette)"/>
  <rect x="0" y="486" width="960" height="54" fill="#000" opacity="0.14"/>
</svg>